<?xml version="1.0" encoding="utf-8"?>
<!-- Generator: Adobe Illustrator 26.3.1, SVG Export Plug-In . SVG Version: 6.00 Build 0)  -->
<svg version="1.1" id="Layer_1" xmlns="http://www.w3.org/2000/svg" xmlns:xlink="http://www.w3.org/1999/xlink" x="0px" y="0px"
	 viewBox="0 0 1080 1080" style="enable-background:new 0 0 1080 1080;" xml:space="preserve">
<style type="text/css">
	.st0{display:none;fill:#FFFFFF;}
	.st1{fill:#009540;}
	.st2{fill:#E20D13;}
	.st3{fill:#FFFFFF;}
	.st4{fill:#1D1D1B;}
	.st5{fill:none;stroke:#1D1D1B;stroke-width:5.1885;stroke-miterlimit:10;}
	.st6{font-family:'ArialNarrow-Bold';}
	.st7{font-size:92.2343px;}
</style>
<g>
	<rect x="211.4" class="st0" width="683.2" height="1080"/>
	<g>
		<path class="st1" d="M654.5,158.7c-29.2-22.2-62.2-34.8-97.2-34.8C457.3,123.9,373,227,349,366.5l106.8,78.3L654.5,158.7z"/>
		<path class="st2" d="M670.6,172.4l-193,390.1L345.1,393.7c-2,17.8-3.2,36.2-3.2,54.9c0,179.4,96.5,324.6,215.4,324.6
			c119,0,215.5-145.3,215.5-324.6C772.8,331.9,731.9,229.7,670.6,172.4"/>
		<path class="st3" d="M670.6,172.4c-5.2-4.8-10.7-9.4-16.1-13.7L455.7,444.8L349,366.5c-1.5,9-2.8,18-3.8,27.2l132.5,168.8
			L670.6,172.4z"/>
		<path class="st3" d="M493.4,643.8l-1.4,22.8h-62v-3.8c1.1-0.1,2.4-0.2,4.2-0.4c1.8-0.2,2.9-0.5,3.5-0.7c1.1-0.6,1.9-1.2,2.2-2.1
			c0.5-0.9,0.8-2,0.8-3.3v-55.8c0-1.1-0.2-2.2-0.7-3.2c-0.4-0.9-1.1-1.7-2.3-2.3c-1-0.4-2.2-0.9-3.9-1.3c-1.5-0.3-2.8-0.5-3.7-0.6
			v-3.7h57.7v18.5H484c-0.7-2.7-2.3-5.7-4.6-8.7c-2.3-3.1-4.6-4.7-6.7-5c-1.1-0.1-2.3-0.3-3.9-0.4c-1.5-0.1-3.1-0.1-5.1-0.1H452
			v30.6h8.5c2.7,0,4.7-0.3,6-0.8c1.3-0.6,2.4-1.5,3.3-2.6c0.7-1.1,1.4-2.5,2-4.3c0.5-1.8,0.9-3.4,1.1-5h3.9v30.2h-3.9
			c-0.1-1.8-0.5-3.5-1.2-5.4c-0.6-2.1-1.2-3.5-1.9-4.3c-1.1-1.3-2.4-2.3-3.8-2.8c-1.4-0.4-3.2-0.7-5.5-0.7H452v23.3
			c0,2.4,0.1,4.2,0.4,5.6c0.4,1.2,1,2.3,2,3c0.8,0.7,2.1,1.2,3.7,1.4s3.7,0.3,6.7,0.3h4.6c1.8,0,3.5,0,4.7-0.3
			c1.3-0.1,2.7-0.4,4.1-0.7c1.5-0.4,2.5-0.8,3.1-1.5c1.6-1.8,3.3-4.5,5.1-8c1.7-3.6,2.9-6.2,3.3-7.9H493.4z"/>
		<path class="st3" d="M533.9,668.5c-4.5,0-8.7-0.9-12.8-2.7c-4-1.8-7.7-4.5-10.7-7.9c-3.2-3.4-5.7-7.5-7.4-12.6
			c-2-4.9-2.8-10.4-2.8-16.6c0-6.2,0.8-11.8,2.7-16.8c1.8-5.1,4.3-9.4,7.5-13.1c3.1-3.6,6.9-6.4,11.2-8.3c4.3-2,9-2.9,13.9-2.9
			c3.6,0,6.9,0.5,9.9,1.4s5.8,2.1,8.5,3.9l2.1-3.6h4.3l0.4,27.6h-4.2c-0.6-2.8-1.5-5.7-2.5-8.8c-1.1-3.3-2.4-6-3.9-8.1
			c-1.7-2.5-3.6-4.4-5.9-5.8c-2.4-1.5-4.9-2.1-7.9-2.1c-3.3,0-6.5,0.7-9.3,2.3c-2.9,1.6-5.4,4-7.6,7.1c-1.9,2.8-3.5,6.5-4.6,11.2
			c-1.2,4.6-1.8,9.6-1.8,15.3c0,4.9,0.5,9.5,1.9,13.6c1.1,4.2,2.8,7.9,5.1,11c2.1,3.2,4.7,5.5,7.8,7.3s6.4,2.6,10.1,2.6
			c2.9,0,5.4-0.5,7.7-1.3c2.4-0.9,4.5-2.3,6.2-3.8c1.8-1.6,3.3-3.4,4.7-5.4c1.3-2,2.4-4.3,3.3-6.7l3.8,2c-3,7.7-7,13.3-12,16.5
			C546.6,666.9,540.7,668.5,533.9,668.5"/>
		<path class="st3" d="M639.5,666.6h-31v-3.8c2.8-0.2,5-0.5,6.8-1.1c1.9-0.5,2.7-1.2,2.7-2c0-0.3,0-0.7-0.1-1.2s-0.2-0.9-0.3-1.2
			l-6.1-17.3h-26.2c-0.9,2.4-1.8,4.8-2.3,6.6c-0.6,1.9-1.2,3.6-1.7,5.2c-0.6,1.6-0.9,2.8-0.9,3.9c-0.3,0.9-0.3,1.8-0.3,2.3
			c0,1.5,1.1,2.5,3.3,3.4s4.7,1.3,7.5,1.5v3.8h-28.2v-3.8c0.9-0.1,2-0.2,3.3-0.6c1.4-0.4,2.5-0.9,3.4-1.4c1.5-0.9,2.5-2.1,3.3-3
			c0.8-1.2,1.5-2.6,2.3-4.5c3.7-9.7,7.8-20.7,12.3-32.8c4.6-12.1,8.6-22.8,12.1-32.2h4.3l24.8,66.7c0.5,1.4,1.1,2.5,1.8,3.3
			c0.6,1,1.6,1.8,2.8,2.7c0.8,0.4,1.9,0.9,3.1,1.3c1.3,0.3,2.4,0.5,3.3,0.5L639.5,666.6L639.5,666.6z M609.4,635l-11.2-29.8L587,635
			H609.4z"/>
		<path class="st3" d="M688.4,631.1c1.7,1.7,2.8,3.7,3.6,5.9s1.2,4.7,1.2,7.6c0,6.8-2.4,12.5-7.3,16.8c-4.9,4.5-10.8,6.7-18,6.7
			c-3.4,0-6.6-0.6-10-1.6s-6.2-2.4-8.6-3.9l-2.3,4h-4.2l-0.8-26.5h4.2c0.8,3.3,1.9,6.1,3.1,8.8c1.1,2.6,2.7,5,4.6,7.5
			c1.9,2,4,3.8,6.4,5s5.2,1.8,8.5,1.8c2.4,0,4.5-0.3,6.3-0.9c1.8-0.7,3.3-1.6,4.4-2.7c1.1-1.3,1.8-2.6,2.5-4.3
			c0.5-1.6,0.8-3.5,0.8-5.5c0-3-0.8-5.9-2.5-8.5c-1.6-2.6-4.2-4.6-7.5-6c-2.3-0.9-4.9-2.1-7.7-3.3c-3-1.1-5.6-2.2-7.7-3.3
			c-4.1-2-7.5-4.6-9.8-7.7c-2.2-3.2-3.5-7.4-3.5-12.5c0-2.9,0.6-5.7,1.8-8.3c1.1-2.5,2.8-4.8,4.9-6.8c2-1.9,4.5-3.4,7.3-4.4
			c2.7-1.1,5.6-1.7,8.6-1.7c3.5,0,6.5,0.5,9.2,1.7c2.8,1.1,5.2,2.3,7.6,3.8l2.1-3.6h4.3L690,615h-4.3c-0.7-3-1.7-5.8-2.6-8.5
			c-1-2.7-2.2-5.1-3.8-7.3c-1.5-2.2-3.3-3.8-5.5-5c-2.1-1.3-4.9-2-8-2c-3.5,0-6.3,1.1-8.7,3.3c-2.3,2.2-3.5,4.9-3.5,8.1
			c0,3.3,0.7,6,2.2,8.3c1.5,2.2,3.7,3.9,6.5,5.4c2.6,1.2,5.1,2.3,7.6,3.4c2.5,0.8,4.9,1.8,7.3,2.9c2,0.9,4.1,2,6,3.2
			C685.3,628,687,629.4,688.4,631.1"/>
	</g>
	<g>
		<polygon class="st4" points="436.2,751.5 442.1,756.1 448.6,747.6 442,742.4 443.7,740.2 453.1,747.5 435.6,770 426.6,763 
			428.4,760.8 434.6,765.7 440.4,758.2 434.5,753.7 		"/>
		<path class="st4" d="M431,749.6c-1.6,1.8-2.4,2.7-3.5,4l-2.2-2l1.6-2l-0.1-0.1c-1.8,0.6-3.8,0.3-5.4-1.2c-1.4-1.3-2.1-3.1-1.1-5.3
			l-0.1-0.1c-1.1,0.4-2.2,0.5-3.1,0.3c-1-0.2-1.9-0.7-2.7-1.4c-2.1-2-2.4-4.9,1.2-8.8l9.3-9.9l2.4,2.3l-8.8,9.4
			c-1.8,1.9-3.3,4.1-1.4,5.9c1,1,2.7,1,4.4-0.1c0.4-0.3,0.9-0.7,1.3-1.2l9-9.6l2.4,2.3l-9.2,9.8c-1.5,1.6-2.9,3.7-1,5.4
			c1,1,2.8,1.1,4.6-0.3c0.4-0.3,0.8-0.7,1.3-1.2l8.9-9.5l2.4,2.3L431,749.6z"/>
		<path class="st4" d="M400.8,734.7c0.9-0.9,2.1-0.9,3,0.1c0.8,0.8,0.7,2-0.2,2.9c-0.9,0.9-2.1,0.8-2.9,0
			C399.8,736.8,399.9,735.6,400.8,734.7 M422.1,719.8l-14.9,14l-2.3-2.5l14.9-14L422.1,719.8z"/>
		<path class="st4" d="M405.2,723.8c-1.3,1.1-2.8,2.6-3.9,3.6l-2-2.3l2.3-2.3l-0.1-0.1c-1.9,0.7-4.3,0.4-5.6-1.1
			c-0.2-0.2-0.3-0.4-0.4-0.6l2.5-2.2c0.1,0.2,0.3,0.3,0.5,0.5c1.4,1.6,3.9,1.6,5.9,0.3c0.5-0.3,1-0.7,1.5-1.1l8.6-7.4l2.2,2.6
			L405.2,723.8z"/>
		<path class="st4" d="M399.2,700c1.2-1,2.6-2.1,3.5-3.1l1.9,2.4l-1.6,1.5l0.1,0.1c1.8-0.2,3.5,0.4,4.6,1.8c1.7,2.2,1.3,5.4-1.5,7.5
			c-4.1,3.2-8.5,1.2-11.5-2.5l-0.5,0.4c-2.2,1.7-3.1,3.4-1.5,5.5c0.8,1,1.9,1.7,3,2.1l-1.3,2c-1.1-0.3-2.8-1.4-4.2-3.1
			c-2.6-3.3-1.7-6.4,1.9-9.2L399.2,700z M396.6,706.3c1.1,1.4,3.9,4.4,7.4,1.6c2.1-1.7,2-3.4,1.2-4.3c-0.9-1.2-2.5-1.5-4.4-0.5
			c-0.4,0.2-0.7,0.4-1,0.6L396.6,706.3z"/>
		<path class="st4" d="M377.3,705l3.9-2.8l-2.4-3.3l2-1.4l2.4,3.3l9.9-7.1c2.2-1.6,2.2-2.8,1.5-3.8c-0.3-0.5-0.6-0.8-0.9-1l1.9-1.6
			c0.5,0.4,1.1,0.9,1.7,1.8c0.8,1.1,1.2,2.3,1,3.4c-0.2,1.3-1.1,2.4-3.4,4.1l-9.6,6.9l1.5,2.1l-2,1.4l-1.5-2.1l-2.8,2L377.3,705z"/>
		<path class="st4" d="M384.4,688.3c5.3-3.5,4.9-6.4,3.6-8.4c-0.8-1.2-1.8-2-2.6-2.5l1.7-1.8c1.1,0.7,2.5,2,3.4,3.4
			c2.8,4.3,0.9,8.7-4.3,12.1c-5.5,3.6-10.6,3.5-12.9-0.1c-2.4-3.6,0.3-7.5,4.1-10c0.7-0.4,1.2-0.7,1.6-0.9L384.4,688.3z
			 M378.7,684.1c-3.4,2.2-4.1,4.5-3.2,5.9c1.2,1.9,4.4,1.1,6.8-0.3L378.7,684.1z"/>
		<path class="st4" d="M382.8,673.7c0-0.9-0.2-2.3-0.9-3.5c-1-1.6-2.6-2.1-4.1-1.2c-1.3,0.8-2,1.8-2,4.4c0,3.2-0.8,5.4-2.8,6.6
			c-2.9,1.7-6.2,0.7-7.9-2.1c-0.9-1.4-1-2.8-1-3.8l2.6-0.5c0,1,0.1,1.9,0.7,2.9c0.9,1.5,2.5,1.7,3.6,1c1.2-0.7,1.5-1.5,1.7-4.1
			c0-2.9,0.6-5.5,3.1-7c3.5-2.1,6.7-0.6,8.5,2.4c0.8,1.3,1.3,3,1.1,4.2L382.8,673.7z"/>
		<path class="st4" d="M366.2,655.1l8.5-2.2l1.5,2.9l-28.4,7l-1.7-3.3l22.3-18.9l1.5,3l-6.7,5.6L366.2,655.1z M361.1,650.8l-5.7,4.7
			c-1.6,1.3-3.5,2.8-5.3,4l0.1,0.1c2.1-0.7,4.5-1.4,6.4-1.9l7.1-1.9L361.1,650.8z"/>
		<path class="st4" d="M356.8,628.4c2-0.9,3.6-1.8,5-2.5l1.2,2.7l-1.9,1.1v0.1c1.2,0.1,3.2,1,4.1,3.1c1.5,3.4-0.4,5.9-5,8l-11.8,5.3
			l-1.4-3.1l11.4-5.1c2.9-1.3,4.9-2.8,3.9-4.9c-0.8-1.8-2.8-1.9-3.7-1.6c-0.6,0.1-1.2,0.3-1.8,0.6l-12.3,5.6l-1.4-3.1L356.8,628.4z"
			/>
		<path class="st4" d="M335.2,627.6l4.4-1.8L338,622l2.3-0.9l1.5,3.8l11.3-4.6c2.5-1,2.8-2.2,2.3-3.3c-0.2-0.5-0.4-0.9-0.6-1.2
			l2.2-1.1c0.4,0.5,0.8,1.2,1.3,2.2c0.5,1.3,0.6,2.5,0.1,3.5c-0.5,1.2-1.7,2.1-4.3,3.1l-11,4.5l1,2.4l-2.3,0.9l-1-2.4l-3.2,1.3
			L335.2,627.6z"/>
		<path class="st4" d="M328.4,621.6l-1.2-3.2l10.4-3.8v-0.1c-0.8-0.2-1.6-0.6-2.3-1.1c-0.7-0.5-1.2-1.3-1.6-2.4
			c-0.9-2.5,0.2-5.4,5-7.1l12.7-4.7l1.2,3.2l-12.4,4.5c-2.3,0.9-4.3,2.2-3.5,4.3c0.5,1.5,2,2.2,4.2,2c0.4-0.1,1-0.2,1.5-0.4
			l12.4-4.6l1.2,3.2L328.4,621.6z"/>
		<path class="st4" d="M336.1,585.6c7.5-2.4,11.2,0.4,12.2,3.5c1.2,3.6-1.1,7.6-7.9,9.8c-7.1,2.3-11.1-0.1-12.3-3.6
			C327,591.7,329.3,587.7,336.1,585.6 M339.3,595.6c3.2-1,7.4-3,6.5-6c-0.9-2.8-5.6-1.9-8.7-0.9c-3,0.9-7.4,3-6.5,5.9
			C331.6,597.5,336.4,596.6,339.3,595.6"/>
		<path class="st4" d="M330.2,583c-1.7,0.5-3.6,1.2-5,1.6l-0.8-2.9l3.1-1.1v-0.1c-2.1-0.1-4.1-1.4-4.7-3.3c-0.1-0.3-0.1-0.5-0.2-0.7
			l3.2-0.9c0.1,0.2,0.1,0.4,0.2,0.7c0.6,2.1,2.9,3.1,5.2,2.8c0.6-0.1,1.2-0.2,1.8-0.4l10.9-3.1l0.9,3.3L330.2,583z"/>
		<path class="st4" d="M316,571.3c1.2-0.3,2.2,0.2,2.6,1.5c0.3,1.1-0.3,2.1-1.6,2.4c-1.2,0.3-2.3-0.3-2.5-1.4
			C314.2,572.6,314.8,571.6,316,571.3 M341.9,568.2l-19.8,5.2l-0.9-3.3L341,565L341.9,568.2z"/>
		<path class="st4" d="M314.3,562.1l4.6-1.1l-0.9-4l2.4-0.6l0.9,4l11.8-2.8c2.6-0.6,3.1-1.7,2.8-2.9c-0.1-0.6-0.3-1-0.4-1.3l2.4-0.7
			c0.4,0.5,0.7,1.3,0.9,2.4c0.3,1.3,0.3,2.6-0.4,3.5c-0.7,1.1-2,1.8-4.7,2.4l-11.5,2.8l0.6,2.5l-2.4,0.6l-0.6-2.5l-3.4,0.8
			L314.3,562.1z"/>
		<path class="st4" d="M316.8,551.4l10.9-5.2c1.5-0.7,2.7-1.2,4-1.7v-0.1c-1.2,0-2.8,0-4.3,0l-12.1-0.1l-0.7-3.3l13.6,0.7
			c5.3,0.2,10.4,0.7,14,2.5c2.1,1.1,3.3,2.5,3.8,3.1l-2.4,1.8c-0.7-0.9-1.8-1.7-3.1-2.4c-1.3-0.6-2.7-1-3.8-1.1
			c-0.5-0.1-0.8-0.1-1-0.1c-0.2,0.1-0.5,0.2-0.7,0.3l-17.4,9.1L316.8,551.4z"/>
		<polygon class="st4" points="304.7,531.3 302.9,520.2 305.7,519.7 307,527.6 316.8,526 315.7,518.7 318.4,518.3 319.6,525.6 
			332.4,523.5 332.9,526.9 		"/>
		<path class="st4" d="M319,501.4c7.8-1,11,2.4,11.4,5.7c0.5,3.8-2.5,7.3-9.6,8.2c-7.4,0.9-10.9-2.1-11.4-5.7
			C308.9,505.7,311.9,502.2,319,501.4 M320.3,511.9c3.4-0.4,7.9-1.6,7.5-4.7c-0.4-2.9-5.2-2.9-8.4-2.5c-3.1,0.4-7.8,1.6-7.4,4.6
			C312.3,512.3,317.2,512.3,320.3,511.9"/>
		<path class="st4" d="M313.6,497.9c-1.7,0.2-3.7,0.5-5.2,0.7l-0.3-3l3.2-0.5V495c-2-0.5-3.8-2.1-4-4.1c0-0.3,0-0.5,0-0.7l3.3-0.3
			c0,0.2,0,0.4,0.1,0.7c0.2,2.1,2.3,3.5,4.6,3.7c0.6,0,1.2,0,1.9-0.1l11.3-1.1l0.3,3.4L313.6,497.9z"/>
		<path class="st4" d="M323.5,479.1c0.6-1,1-2.8,0.9-4.3c-0.2-3.1-2.2-4.9-5.1-4.7c-2.6,0.1-4.1,1.8-5.7,4.2c-1.4,2.5-3.9,5.8-7.6,6
			c-4.3,0.2-7.6-2.7-7.9-7.4c-0.1-1.8,0.4-3.5,0.8-4.2l2.8,0.6c-0.5,0.8-0.9,2-0.8,3.6c0.2,2.9,2.4,4.2,4.3,4.1
			c2.8-0.2,3.8-1.7,5.6-4.7c2.2-3.7,4.7-5.4,7.9-5.6c4.9-0.3,8.2,3.1,8.4,7.9c0.1,2-0.4,4.2-0.9,5L323.5,479.1z"/>
		<path class="st4" d="M301.1,459.3l4.8-0.1l-0.1-4.1l2.5-0.1l0.1,4.1l12.2-0.3c2.7-0.1,3.4-1.1,3.3-2.3c0-0.6-0.1-1-0.2-1.4
			l2.5-0.2c0.2,0.6,0.4,1.4,0.4,2.5c0,1.4-0.3,2.6-1.1,3.4c-0.9,0.9-2.3,1.3-5.1,1.4l-11.9,0.3l0.1,2.6l-2.4,0.1l-0.1-2.6l-3.5,0.1
			L301.1,459.3z"/>
		<path class="st4" d="M321.4,440.3c1.6,0,3.3-0.1,4.6-0.3v3l-2.2,0.2v0.1c1.6,0.9,2.5,2.4,2.5,4.2c0,2.8-2.2,5-5.8,5.1
			c-5.2,0.1-7.4-4.2-7.5-9h-0.6c-2.7,0-4.6,0.8-4.6,3.4c0,1.3,0.4,2.5,1.1,3.5l-2.3,0.8c-0.6-0.9-1.4-2.8-1.4-4.9
			c0-4.3,2.6-6.1,7.2-6.1L321.4,440.3z M315.5,443.7c0,1.8,0.4,5.8,4.8,5.8c2.7,0,3.6-1.4,3.6-2.6c0-1.5-1.1-2.7-3.1-3.1
			c-0.4-0.1-0.8-0.1-1.2-0.1L315.5,443.7z"/>
		<path class="st4" d="M311,435c-2.4-0.1-3.6,0-5.3,0l0.1-2.9l2.5-0.1v-0.1c-1.6-1-2.7-2.7-2.6-5c0.1-2.9,2.2-5.1,7.2-4.9l13.7,0.4
			l-0.1,3.4l-13.1-0.4c-2.4-0.1-4.9,0.3-5,2.8c0,1.4,1.1,2.8,3.2,3.3c0.5,0.2,1.1,0.2,1.9,0.2l12.9,0.4l-0.1,3.4L311,435z"/>
		<path class="st4" d="M298.5,403l24.3,1.6c1.4,0.1,3.7,0.1,4.9,0.2l-0.2,2.9l-2.5,0.1v0.1c1.4,0.8,2.7,2.4,2.6,4.7
			c-0.2,3.6-4.1,5.9-10.9,5.4c-7.2-0.5-10.4-3.8-10.2-7.1c0.1-1.6,0.9-3,2.7-3.7v-0.1l-10.9-0.7L298.5,403z M314.9,407.5
			c-0.4,0-0.9-0.1-1.4,0c-2.2,0.1-4.1,1.3-4.2,2.9c-0.2,2.8,3.5,4,7.5,4.3c4.3,0.3,7.8-0.6,8-3.1c0.1-1-0.4-2.5-3.3-3.5
			c-0.4-0.1-0.8-0.2-1.3-0.2L314.9,407.5z"/>
		<path class="st4" d="M324.7,388.7c1.6,0.2,3.3,0.3,4.6,0.3l-0.3,3h-2.2v0.1c1.5,1.1,2.2,2.7,2,4.5c-0.3,2.8-2.8,4.8-6.3,4.4
			c-5.1-0.5-6.9-5-6.5-9.8l-0.6-0.1c-2.7-0.3-4.7,0.3-4.9,2.9c-0.1,1.3,0.1,2.5,0.7,3.6l-2.3,0.5c-0.5-1-1.1-3-0.8-5.1
			c0.4-4.2,3.3-5.8,7.8-5.3L324.7,388.7z M318.4,391.3c-0.2,1.7-0.3,5.9,4.2,6.3c2.7,0.3,3.8-1,3.9-2.2c0.2-1.5-0.8-2.8-2.7-3.4
			c-0.4-0.1-0.8-0.2-1.2-0.3L318.4,391.3z"/>
		<path class="st4" d="M314.8,382.4c-1.7-0.2-3.8-0.4-5.3-0.5l0.4-3l3.3,0.2V379c-1.8-0.9-3.2-2.9-2.9-4.9c0-0.3,0.1-0.5,0.1-0.7
			l3.3,0.4c0,0.2-0.1,0.4-0.1,0.7c-0.3,2.1,1.4,4,3.7,4.6c0.5,0.2,1.2,0.3,1.8,0.4l11.2,1.5l-0.4,3.4L314.8,382.4z"/>
		<path class="st4" d="M304.4,356.9l24,3.8c1.4,0.2,3.7,0.5,4.9,0.6l-0.5,2.9l-2.5-0.2v0.1c1.3,0.9,2.5,2.6,2.1,4.9
			c-0.6,3.5-4.6,5.5-11.3,4.4c-7.1-1.1-10-4.8-9.5-8c0.3-1.6,1.2-2.9,3-3.5v-0.1l-10.8-1.7L304.4,356.9z M320.3,362.8
			c-0.4-0.1-0.9-0.1-1.3-0.2c-2.2-0.1-4.2,0.9-4.4,2.5c-0.4,2.8,3.1,4.3,7.1,5c4.3,0.7,7.9,0.1,8.2-2.3c0.2-1-0.2-2.6-3-3.8
			c-0.4-0.1-0.8-0.3-1.3-0.3L320.3,362.8z"/>
		<path class="st4" d="M309.5,348.5c1.2,0.2,1.9,1.2,1.7,2.4c-0.2,1.1-1.2,1.7-2.4,1.5c-1.3-0.2-1.9-1.3-1.7-2.3
			C307.3,348.9,308.3,348.2,309.5,348.5 M334.1,356.8L314,353l0.6-3.3l20.1,3.8L334.1,356.8z"/>
		<path class="st4" d="M333.4,350.1l-11-9.2c-0.9-0.7-1.8-1.6-2.6-2.3h-0.1l-1.6,7.4l-2.6-0.6l2.4-11.1l2.1,0.4l10.8,9.1
			c0.9,0.8,1.8,1.6,2.6,2.3h0.1l1.7-8.1l2.6,0.6l-2.5,11.9L333.4,350.1z"/>
		<path class="st4" d="M336.8,323.4c1.5,0.4,3.2,0.8,4.6,0.9l-0.7,2.9l-2.1-0.3v0.1c1.3,1.3,1.8,2.9,1.4,4.7
			c-0.7,2.7-3.4,4.3-6.9,3.5c-5-1.2-6.1-5.9-5-10.6l-0.6-0.2c-2.7-0.7-4.6-0.4-5.3,2.2c-0.3,1.3-0.2,2.5,0.2,3.7l-2.4,0.2
			c-0.4-1-0.6-3.1-0.1-5.1c1-4.1,4-5.3,8.5-4.2L336.8,323.4z M330.2,325.2c-0.4,1.7-1.1,5.8,3.2,6.8c2.6,0.6,3.9-0.5,4.2-1.6
			c0.4-1.4-0.4-2.9-2.2-3.8c-0.3-0.2-0.7-0.3-1.1-0.4L330.2,325.2z"/>
		<path class="st4" d="M319.3,309.5l4.6,1.3l1.1-3.9l2.4,0.7l-1.1,3.9l11.7,3.3c2.6,0.7,3.5,0,3.8-1.2c0.2-0.5,0.2-1,0.2-1.3
			l2.4,0.5c0,0.6-0.1,1.4-0.4,2.5c-0.4,1.3-1,2.4-2.1,2.9c-1.1,0.6-2.6,0.6-5.3-0.2l-11.4-3.2l-0.7,2.5l-2.4-0.7l0.7-2.5l-3.3-0.9
			L319.3,309.5z"/>
		<path class="st4" d="M322,298.4c1.2,0.4,1.8,1.4,1.4,2.6c-0.3,1-1.4,1.6-2.6,1.2s-1.8-1.5-1.4-2.5
			C319.7,298.6,320.8,298.1,322,298.4 M345.6,309.4l-19.6-5.9l1-3.2l19.6,5.9L345.6,309.4z"/>
		<path class="st4" d="M342.4,286.1c7.5,2.5,8.8,6.9,7.8,10.1c-1.2,3.6-5.4,5.5-12.2,3.2c-7.1-2.4-8.9-6.7-7.7-10.1
			C331.4,285.6,335.6,283.8,342.4,286.1 M339,296.1c3.2,1.1,7.8,2,8.7-1c0.9-2.7-3.4-4.9-6.4-5.9s-7.7-2-8.7,0.9
			S336,295.1,339,296.1"/>
		<path class="st4" d="M339.1,280.4c-2.3-0.9-3.4-1.2-5-1.7l1.1-2.7l2.4,0.7v-0.1c-1.2-1.5-1.7-3.5-0.9-5.6c1.1-2.7,3.8-4.1,8.4-2.3
			l12.8,4.9l-1.2,3.2l-12.3-4.7c-2.3-0.9-4.7-1.3-5.6,1c-0.5,1.3,0.1,3,2,4.1c0.4,0.3,1,0.6,1.7,0.8l12,4.6l-1.2,3.2L339.1,280.4z"
			/>
		<path class="st4" d="M368.7,249.6c-0.9,0.2-1.6,0.4-3.2,0.7c1.1,2.3,1,4.9,0,7.1c-2.1,4.5-6.6,5.1-10.2,3.4
			c-2.8-1.3-4.8-3.8-5.5-7.5l-0.1-0.1c-2.3,0.3-4.6,0.2-6.7-0.7c-3.1-1.5-5.1-4.8-3.5-8.3c1.1-2.5,4-3.9,7.5-2.3
			c2.6,1.2,4.1,3.4,4.8,7.9l0.1,0.1c2.1-0.2,6-0.9,9.7-1.7c-1.8-2.3-5-4.2-6.7-5.1l1.3-2.8c2.9,1.7,6.2,4.3,8,7.3
			c1-0.2,2.8-0.6,6.1-1.3L368.7,249.6z M344,249.5c1.8,0.8,3.4,1,5.4,0.7c-0.5-2.8-1.6-4.6-3.6-5.6c-1.6-0.7-3.5-1-4.3,0.8
			C340.8,246.9,342,248.5,344,249.5 M362.9,250.7c-4,0.9-7.7,1.5-10.8,2c0.5,1.8,1.8,3.8,4.1,4.9c2.6,1.2,5.8,0.9,7.1-1.9
			C364.1,254.1,363.9,252.4,362.9,250.7"/>
		<path class="st4" d="M373.2,215.5c-3.4-1.7-7.1-3.6-9.8-5.3l-0.1,0.2c2.4,2.2,5,4.5,7.4,7l9.8,9.8l-1.1,1.9l-12.8-3.4
			c-3.7-0.9-7.1-2-10.3-3.1l-0.1,0.1c2.9,1.6,6.3,3.8,9.7,6l10.2,6.5l-1.5,2.6L350.7,222l1.8-3.2l13,3.5c3.8,1,6.6,1.7,9.7,2.8
			l0.1-0.1c-2.5-2.1-4.6-4-7.4-6.8l-9.6-9.4l1.9-3.3l25.6,12.7l-1.6,2.7L373.2,215.5z"/>
		<path class="st4" d="M381,207.4c5.3,3.5,7.8,2,9.1,0c0.8-1.2,1.2-2.4,1.3-3.4l2.3,0.8c-0.2,1.3-0.8,3-1.8,4.5
			c-2.8,4.3-7.6,4.2-12.8,0.8c-5.5-3.6-7.3-8.4-5-11.9c2.4-3.6,7-2.7,10.8-0.1c0.7,0.4,1.1,0.8,1.5,1.1L381,207.4z M382.7,200.5
			c-3.4-2.3-5.8-2-6.7-0.6c-1.2,1.9,0.7,4.5,3,6.1L382.7,200.5z"/>
		<path class="st4" d="M378.8,183.6l3.9,2.8l2.4-3.3l2,1.4l-2.4,3.3l9.9,7.1c2.2,1.6,3.3,1.2,4,0.2c0.3-0.5,0.6-0.8,0.7-1.2l2.1,1.3
			c-0.2,0.6-0.5,1.3-1.2,2.2c-0.8,1.1-1.8,1.9-3,2c-1.3,0.2-2.6-0.3-4.9-2l-9.6-7l-1.5,2.1l-2-1.4l1.5-2.1l-2.8-2L378.8,183.6z"/>
		<path class="st4" d="M391.5,183.4c-1.4-1.1-3-2.2-4.3-3.1l1.9-2.4l2.7,1.9l0.1-0.1c-1.1-1.7-1.3-4.2,0-5.7
			c0.2-0.2,0.3-0.4,0.5-0.5l2.6,2c-0.1,0.2-0.3,0.3-0.4,0.5c-1.3,1.7-0.8,4.1,0.8,5.8c0.4,0.4,0.9,0.8,1.4,1.3l8.9,7l-2.1,2.7
			L391.5,183.4z"/>
		<path class="st4" d="M410.5,168.2c6,5.2,5.6,9.8,3.4,12.2c-2.5,2.9-7,3.1-12.5-1.6c-5.6-4.9-5.8-9.5-3.4-12.3
			C400.5,163.7,405.1,163.6,410.5,168.2 M403.6,176.2c2.6,2.2,6.5,4.7,8.5,2.4c1.9-2.2-1.3-5.8-3.8-7.9c-2.4-2-6.4-4.7-8.4-2.4
			C397.9,170.6,401.2,174.2,403.6,176.2"/>
		
			<rect x="409.7" y="146.2" transform="matrix(0.6869 -0.7267 0.7267 0.6869 11.8944 349.3028)" class="st4" width="3.4" height="29.3"/>
		<path class="st4" d="M428.8,149.8c5.5,5.7,4.6,10.3,2.2,12.5c-2.8,2.6-7.3,2.4-12.3-2.8c-5.2-5.4-4.8-10-2.2-12.6
			C419.3,144.3,423.9,144.7,428.8,149.8 M421.2,157.1c2.3,2.4,6,5.3,8.2,3.2c2.1-2-0.8-5.9-3-8.2s-6-5.3-8.1-3.3
			C416.1,151,419,154.9,421.2,157.1"/>
		<path class="st4" d="M446.8,144.6c3.4,4.1,4.2,6.1,4.1,8.2c-0.1,1.9-1.1,3.7-3,5.3c-1.4,1.2-3,2-4.2,2.2l-1-2.5
			c0.9-0.2,2.3-0.7,3.6-1.8c2.1-1.7,2.3-4-0.6-7.6l-1.3-1.6l-0.1,0.1c0.5,1.7-0.2,3.4-1.6,4.5c-2.9,2.4-7.4,0.8-11.3-3.8
			c-4.8-5.8-4-10.4-1.6-12.5c1.7-1.4,3.5-1,4.7-0.5l0.1-0.1l-1.3-1.9l2.3-1.9c0.9,1.1,1.9,2.6,3.9,5L446.8,144.6z M437.3,138.4
			c-0.3-0.4-0.7-0.8-1.1-1c-1.2-0.8-2.8-1.6-4.3-0.4c-1.9,1.6-0.9,4.9,2,8.3c3.3,4,6.2,4.7,7.7,3.4c0.8-0.7,1.5-1.9,0.5-4.2
			c-0.3-0.6-0.6-1.1-1-1.6L437.3,138.4z"/>
		<path class="st4" d="M441.4,126.3l9.1,7.9c1.2,1.1,2.2,2,3.2,2.9l0.1-0.1c-0.5-1.1-1.1-2.5-1.7-3.9l-4.8-11.1l2.7-1.9l4.8,12.7
			c1.9,4.9,3.6,9.8,3.4,13.8c-0.2,2.4-0.9,4-1.3,4.7l-2.6-1.5c0.5-1,0.9-2.4,1-3.9c0.1-1.4-0.2-2.9-0.5-3.9c-0.1-0.5-0.2-0.7-0.4-1
			c-0.1-0.2-0.3-0.4-0.5-0.5l-15.3-12.2L441.4,126.3z"/>
		<path class="st4" d="M661.7,139.8c-0.8,0.8-1.6,1.3-2.5,1.7c-0.9,0.3-1.8,0.5-2.7,0.5s-1.8-0.2-2.7-0.5s-1.7-0.7-2.5-1.3
			s-1.5-1.3-2.1-2.2c-0.6-0.8-1-1.7-1.3-2.7c-0.2-1-0.3-1.9-0.1-3c0.2-1,0.6-2,1.3-3l4-5.4l2.8,2.1l-4,5.4c-0.4,0.6-0.7,1.1-0.7,1.7
			s-0.1,1.1,0.1,1.6c0.1,0.5,0.4,1,0.8,1.5c0.4,0.5,0.8,0.9,1.2,1.2c0.5,0.4,1,0.6,1.5,0.8s1.1,0.3,1.6,0.3s1.1-0.1,1.6-0.4
			c0.5-0.2,1-0.7,1.4-1.2l8.5-11.5l2.9,2.1l-7,9.4l4.3,3.2l7-9.4l2.8,2.1l-7,9.4l4.3,3.2l7-9.5l2.8,2.1l-7,9.4l2.5,1.8l-2,2.7
			L661.7,139.8z"/>
		
			<rect x="679.8" y="149.4" transform="matrix(0.6694 -0.7429 0.7429 0.6694 111.2085 557.052)" class="st4" width="3.4" height="8.4"/>
		
			<rect x="685.6" y="154.8" transform="matrix(0.6932 -0.7208 0.7208 0.6932 96.2937 544.1556)" class="st4" width="3.4" height="8.4"/>
		
			<rect x="691.2" y="160.4" transform="matrix(0.7155 -0.6986 0.6986 0.7155 82.1524 530.9082)" class="st4" width="3.4" height="8.4"/>
		
			<rect x="696.6" y="166.1" transform="matrix(0.7356 -0.6774 0.6774 0.7356 69.2605 518.0467)" class="st4" width="3.4" height="8.4"/>
		
			<rect x="701.9" y="172.1" transform="matrix(0.7551 -0.6556 0.6556 0.7551 56.7293 504.4673)" class="st4" width="3.4" height="8.4"/>
		<rect x="707" y="178.1" transform="matrix(0.7733 -0.634 0.634 0.7733 45.0723 490.6413)" class="st4" width="3.4" height="8.4"/>
		<path class="st4" d="M706,190.6c0.4-0.3,0.9-0.4,1.4-0.4c0.5,0.1,0.9,0.3,1.3,0.8c0.2,0.2,0.3,0.4,0.4,0.7
			c0.1,0.2,0.1,0.5,0.1,0.7s-0.1,0.5-0.2,0.7c-0.1,0.2-0.3,0.4-0.5,0.6c-0.2,0.2-0.4,0.3-0.7,0.3c-0.2,0.1-0.5,0.1-0.7,0
			c-0.2,0-0.5-0.1-0.7-0.2c-0.2-0.1-0.4-0.3-0.6-0.5c-0.3-0.4-0.5-0.9-0.4-1.4C705.4,191.4,705.6,191,706,190.6 M709.3,194.9
			c0.4-0.3,0.9-0.4,1.4-0.4c0.5,0.1,0.9,0.3,1.3,0.8c0.3,0.4,0.5,0.9,0.4,1.4s-0.3,0.9-0.7,1.3c-0.4,0.3-0.9,0.4-1.4,0.4
			c-0.5-0.1-0.9-0.3-1.3-0.8c-0.3-0.4-0.5-0.9-0.4-1.4C708.7,195.7,708.9,195.3,709.3,194.9 M715.1,187.6l9.3-7.1l2.1,2.8l-9.3,7.1
			l2.2,2.9l-2.7,2.1l-6.8-8.9l2.7-2.1L715.1,187.6z"/>
		<path class="st4" d="M712,198.4c0.4-0.3,0.9-0.4,1.4-0.3c0.5,0.1,0.9,0.4,1.2,0.8c0.3,0.4,0.4,0.9,0.4,1.4
			c-0.1,0.5-0.3,0.9-0.8,1.2c-0.4,0.3-0.9,0.4-1.4,0.3c-0.5-0.1-0.9-0.4-1.2-0.8c-0.3-0.4-0.4-0.9-0.4-1.4
			C711.3,199.1,711.6,198.7,712,198.4 M715.1,202.8c0.4-0.3,0.9-0.4,1.4-0.3c0.5,0.1,0.9,0.4,1.2,0.8c0.3,0.5,0.4,0.9,0.4,1.4
			c-0.1,0.5-0.3,0.9-0.8,1.2c-0.4,0.3-0.9,0.4-1.4,0.3c-0.5-0.1-0.9-0.4-1.2-0.8c-0.3-0.4-0.4-0.9-0.4-1.4
			C714.4,203.5,714.7,203.1,715.1,202.8 M719.4,193.2l3.9,5.4l9.6-6.8l2,2.9l-10.8,7.7l-0.1,0.1c-0.2,0.1-0.4,0.2-0.6,0.3
			c-0.2,0-0.4,0-0.7,0c-0.2,0-0.4-0.1-0.6-0.3c-0.2-0.1-0.4-0.3-0.5-0.5l-4.9-6.9L719.4,193.2z"/>
		<path class="st4" d="M729,213.2l-3.1-4.8c-0.3-0.4-0.4-0.8-0.3-1.3c0.1-0.5,0.3-0.8,0.7-1.1c0.1,0,0.1-0.1,0.2-0.1l17.3-11.4
			l1.9,2.9L729.6,208l2.2,3.3L729,213.2z"/>
		<path class="st4" d="M728.9,212.8l2.9-1.7l2.1,3.5c0.5-0.8,1-1.4,1.5-2s1.1-1,1.7-1.4c0.9-0.5,1.8-0.9,2.8-1.1
			c1-0.2,2-0.2,2.9-0.1c1,0.2,1.9,0.5,2.7,1.1c0.9,0.6,1.6,1.4,2.2,2.5l2.7,4.5c0.2,0.3,0.3,0.6,0.3,0.9c0,0.3,0,0.6-0.1,0.9
			c-0.1,0.3-0.2,0.6-0.4,0.8s-0.4,0.5-0.7,0.6l-8.7,5.1l1.6,2.6l-2.9,1.7L728.9,212.8z M737.4,215.6c-0.2,0.3-0.4,0.6-0.6,0.9
			c-0.2,0.3-0.2,0.7-0.3,1.1c0,0.4,0,0.8,0.1,1.2s0.3,0.8,0.5,1.3l2.1,3.6l7.7-4.6l-2.1-3.5c-0.4-0.6-0.8-1.1-1.3-1.4
			c-0.5-0.3-1-0.5-1.5-0.6s-1.1,0-1.6,0.1c-0.6,0.1-1.1,0.3-1.5,0.6c-0.3,0.2-0.5,0.4-0.8,0.6C737.9,215.1,737.6,215.3,737.4,215.6
			 M749.9,207.9c0.5-0.3,0.9-0.3,1.4-0.2s0.9,0.4,1.2,0.9c0.1,0.2,0.2,0.5,0.3,0.7c0,0.2,0,0.5,0,0.7c-0.1,0.2-0.2,0.5-0.3,0.7
			s-0.3,0.4-0.6,0.5c-0.2,0.1-0.5,0.2-0.7,0.2s-0.5,0-0.7-0.1s-0.5-0.2-0.7-0.3c-0.2-0.2-0.4-0.4-0.5-0.6c-0.3-0.5-0.4-0.9-0.2-1.4
			C749.2,208.5,749.5,208.2,749.9,207.9 M752.7,212.5c0.5-0.3,0.9-0.3,1.4-0.2s0.9,0.4,1.2,0.9s0.4,1,0.2,1.5
			c-0.1,0.5-0.4,0.9-0.9,1.2s-0.9,0.3-1.4,0.2s-0.9-0.4-1.2-0.9s-0.4-1-0.2-1.4C752,213.2,752.2,212.8,752.7,212.5"/>
		<path class="st4" d="M739.6,230.7l3-1.6l1.5,3l4.6-2.3c0.8-0.4,1.6-0.6,2.6-0.7c1,0,1.9,0.1,2.9,0.4c0.9,0.3,1.8,0.7,2.6,1.4
			c0.8,0.6,1.4,1.4,1.9,2.4c0.5,0.9,0.9,1.8,1.4,2.7s0.9,1.8,1.4,2.7c0.1,0.2,0.2,0.4,0.2,0.7c0,0.2,0,0.5-0.1,0.7s-0.2,0.4-0.3,0.6
			c-0.1,0.2-0.3,0.3-0.5,0.4l-9.5,4.9l1.4,2.7l-3,1.6L739.6,230.7z M745.7,235.3l3.9,7.5l8-4.1c-0.2-0.3-0.3-0.6-0.5-0.9
			c-0.2-0.3-0.3-0.6-0.5-0.9c-0.1-0.3-0.3-0.6-0.4-0.8c-0.1-0.2-0.2-0.4-0.3-0.6c-0.1-0.3-0.2-0.5-0.3-0.5c0-0.1-0.1-0.1-0.1-0.1
			c-0.2-0.5-0.6-0.8-1-1.2c-0.4-0.3-0.9-0.6-1.4-0.8s-1-0.2-1.5-0.2s-1,0.1-1.4,0.3L745.7,235.3z"/>
		<path class="st4" d="M752.4,248.5l1.6,3.5l17.4-8.1l1.5,3.2l-18.8,8.7l-0.1,0.1c-0.4,0.2-0.9,0.2-1.3,0c-0.4-0.2-0.8-0.5-1-0.9
			l-2.4-5.1L752.4,248.5z"/>
		
			<rect x="754.3" y="256.5" transform="matrix(0.917 -0.399 0.399 0.917 -39.4427 326.9078)" class="st4" width="22.6" height="3.5"/>
		<path class="st4" d="M762.2,279.4c-0.2-0.3-0.5-0.7-0.8-1.3c-0.3-0.6-0.7-1.3-1-2.1c-0.3-0.8-0.7-1.6-0.9-2.5
			c-0.3-0.9-0.5-1.7-0.6-2.4c-0.1-0.8-0.1-1.4,0-2s0.4-0.9,0.9-1.1l5.7-2.3c0.9-0.4,1.9-0.5,2.9-0.5s1.9,0.3,2.8,0.7
			c0.9,0.4,1.7,1,2.4,1.7s1.3,1.6,1.6,2.6l2,5c0.1,0.3,0.2,0.6,0.2,0.9s-0.1,0.6-0.2,0.9c-0.1,0.3-0.3,0.5-0.5,0.7s-0.5,0.4-0.8,0.5
			c-1,0.4-2.1,0.8-3.2,1.3c-1.1,0.5-2.3,0.9-3.4,1.4c-1.2,0.4-2.4,0.8-3.5,1.2c-1.2,0.4-2.4,0.6-3.5,0.8c-1.2,0.2-2.3,0.2-3.4,0.1
			c-1.1-0.1-2.2-0.4-3.2-0.9s-1.9-1.2-2.8-2.1c-0.9-0.9-1.6-2.1-2.3-3.6l3.1-1.2c0.4,1,0.9,1.8,1.5,2.4c0.5,0.6,1.2,1,1.8,1.3
			c0.7,0.3,1.4,0.5,2.1,0.6c0.7,0.1,1.5,0.1,2.3,0.1L762.2,279.4z M763.5,274.8c0.3,0.7,0.5,1.3,0.9,1.9c0.3,0.6,0.7,1.3,1.1,1.9
			c0.7-0.2,1.3-0.4,2.1-0.7c0.7-0.3,1.4-0.6,2.1-0.9c0.7-0.3,1.4-0.6,2.1-0.9c0.7-0.3,1.3-0.6,1.9-0.8l-1.5-3.9
			c-0.2-0.5-0.5-1-0.9-1.4s-0.8-0.7-1.3-0.9c-0.5-0.2-1-0.3-1.5-0.4c-0.5,0-1.1,0.1-1.6,0.3l-4.4,1.8c0.1,0.5,0.2,0.9,0.2,1.2
			c0.1,0.3,0.2,0.7,0.2,1c0.1,0.3,0.2,0.6,0.3,0.8c0.1,0.2,0.2,0.5,0.3,0.8L763.5,274.8z"/>
		<path class="st4" d="M788.3,310.4l-12.8,4c-0.5,0.1-0.9,0.1-1.3-0.1c-0.4-0.2-0.7-0.6-0.8-1l-3.7-11.9c-0.4-1.4-0.6-2.7-0.5-3.7
			c0.1-1.1,0.4-2,0.9-2.8s1.1-1.4,1.8-2c0.7-0.5,1.5-0.9,2.4-1.2c0.9-0.3,1.9-0.5,2.8-0.5c0.9,0,1.8,0,2.5,0.1
			c-0.1,0.7-0.2,1.2-0.3,1.7s-0.2,1.1-0.3,1.7c-0.5-0.1-1.1-0.1-1.8,0c-0.7,0-1.3,0.2-2,0.4c-0.5,0.2-0.9,0.3-1.3,0.6
			c-0.4,0.2-0.7,0.6-1,1c-0.2,0.4-0.4,0.9-0.4,1.5s0.1,1.3,0.3,2.1l3.3,10.4l11.2-3.5L788.3,310.4z M787.5,294.5
			c0.2-0.1,0.5-0.1,0.7-0.1s0.5,0.1,0.7,0.2s0.4,0.3,0.6,0.5c0.2,0.2,0.3,0.4,0.4,0.7c0.1,0.3,0.1,0.5,0.1,0.8
			c0,0.2-0.1,0.5-0.2,0.7c-0.1,0.2-0.3,0.4-0.4,0.6c-0.2,0.2-0.4,0.3-0.7,0.4c-0.5,0.2-1,0.1-1.4-0.1s-0.7-0.6-0.9-1.2
			c-0.2-0.5-0.1-1,0.1-1.5C786.6,295,787,294.7,787.5,294.5 M789.1,299.7c0.2-0.1,0.5-0.1,0.7-0.1s0.5,0.1,0.7,0.2s0.4,0.3,0.6,0.5
			c0.2,0.2,0.3,0.4,0.4,0.7c0.2,0.5,0.1,1-0.1,1.5c-0.2,0.5-0.6,0.8-1.1,0.9c-0.2,0.1-0.5,0.1-0.7,0.1s-0.5-0.1-0.7-0.2
			s-0.4-0.3-0.6-0.5c-0.2-0.2-0.3-0.4-0.4-0.7c-0.2-0.5-0.1-1,0.1-1.4C788.2,300.1,788.6,299.8,789.1,299.7"/>
		<path class="st4" d="M776.7,325.8l-1.5-5.5c-0.1-0.5-0.1-0.9,0.2-1.3c0.2-0.4,0.6-0.7,1-0.8c0.1,0,0.1,0,0.2,0l20.1-5.4l0.9,3.4
			l-18.6,5l1,3.8L776.7,325.8z"/>
		
			<rect x="777.5" y="324.8" transform="matrix(0.9707 -0.2404 0.2404 0.9707 -56.2357 196.9705)" class="st4" width="3.4" height="8.4"/>
		
			<rect x="779.2" y="332.4" transform="matrix(0.9747 -0.2237 0.2237 0.9747 -55.5125 183.2388)" class="st4" width="3.4" height="8.4"/>
		
			<rect x="781" y="340.2" transform="matrix(0.9784 -0.2067 0.2067 0.9784 -54.2853 169.2236)" class="st4" width="3.4" height="8.4"/>
		
			<rect x="782.6" y="348" transform="matrix(0.9819 -0.1896 0.1896 0.9819 -52.5565 155.0917)" class="st4" width="3.4" height="8.4"/>
		
			<rect x="784" y="355.8" transform="matrix(0.9849 -0.1731 0.1731 0.9849 -50.4527 141.4415)" class="st4" width="3.4" height="8.4"/>
		
			<rect x="785.3" y="363.6" transform="matrix(0.9877 -0.1562 0.1562 0.9877 -47.789 127.445)" class="st4" width="3.4" height="8.4"/>
		<rect x="786.5" y="371.5" transform="matrix(0.99 -0.141 0.141 0.99 -45.0979 114.8903)" class="st4" width="3.4" height="8.4"/>
		<path class="st4" d="M787.2,379.5l3.4-0.4l0.5,4.1c0.7-0.5,1.5-0.9,2.2-1.2c0.7-0.3,1.4-0.5,2.1-0.5c1-0.1,2-0.1,3,0.2
			c1,0.2,1.9,0.6,2.7,1.2c0.8,0.5,1.5,1.3,2,2.2c0.5,0.9,0.9,1.9,1,3.2l0.6,5.3c0,0.3,0,0.6-0.1,0.9s-0.2,0.6-0.4,0.8
			c-0.2,0.2-0.4,0.4-0.7,0.6s-0.5,0.2-0.9,0.3l-10,1.1l0.3,3l-3.4,0.4L787.2,379.5z M793.8,385.6c-0.3,0.2-0.6,0.4-0.9,0.6
			c-0.3,0.2-0.5,0.5-0.7,0.9c-0.2,0.3-0.3,0.7-0.4,1.1c-0.1,0.4-0.1,0.9,0,1.3l0.5,4.1l8.9-1l-0.5-4.1c-0.1-0.7-0.3-1.3-0.6-1.8
			s-0.7-0.9-1.2-1.1c-0.5-0.3-1-0.5-1.5-0.6c-0.6-0.1-1.1-0.1-1.6-0.1c-0.3,0-0.6,0.1-1,0.2C794.4,385.3,794.1,385.4,793.8,385.6
			 M808.7,386.6c0.5-0.1,1,0.1,1.4,0.4s0.6,0.8,0.7,1.3c0,0.3,0,0.5-0.1,0.8c-0.1,0.2-0.2,0.5-0.3,0.7c-0.2,0.2-0.3,0.4-0.5,0.5
			s-0.5,0.2-0.7,0.2c-0.3,0-0.5,0-0.7-0.1s-0.4-0.2-0.6-0.3c-0.2-0.2-0.3-0.3-0.5-0.6c-0.1-0.2-0.2-0.5-0.2-0.7
			c-0.1-0.5,0.1-1,0.4-1.4C807.7,386.9,808.1,386.7,808.7,386.6"/>
		<path class="st4" d="M801.9,406.3c0.5,0.1,0.9,0.3,1.4,0.7c0.5,0.4,0.9,0.9,1.3,1.4c0.4,0.6,0.7,1.2,1,1.9
			c0.3,0.7,0.4,1.4,0.5,2.1c0.1,1.3,0.1,2.6,0.2,3.9c0.1,1.3,0.1,2.6,0.2,4c0,0.2,0,0.5-0.1,0.7s-0.2,0.4-0.3,0.6s-0.3,0.3-0.5,0.4
			s-0.4,0.2-0.6,0.2l-12.1,0.8c-0.5,0-1-0.1-1.4-0.4s-0.6-0.7-0.6-1.2l-1.4-21.2l3.4-0.2l0.2,3.4l12.4-0.8l0.2,3.5L801.9,406.3z
			 M802.8,412.6c-0.1-0.8-0.2-1.6-0.4-2.3c-0.2-0.7-0.6-1.4-1-1.9s-1-1-1.6-1.3s-1.4-0.5-2.2-0.4l-4.1,0.3l0.8,12.5l8.9-0.6
			c-0.1-2-0.2-3.5-0.2-4.6C802.8,413.2,802.8,412.7,802.8,412.6"/>
		
			<rect x="791.2" y="427.3" transform="matrix(0.9995 -3.127477e-02 3.127477e-02 0.9995 -13.0257 25.3076)" class="st4" width="22.6" height="3.5"/>
		<path class="st4" d="M791.5,451c-1.3-0.3-2.5-0.7-3.7-1.2c-1.1-0.5-2.2-1.2-3-2c-0.9-0.8-1.6-1.8-2.1-3s-0.8-2.6-0.9-4.2h3.4
			c0,1.1,0.2,2,0.6,2.7c0.3,0.8,0.8,1.4,1.3,1.9s1.2,1,1.9,1.3c0.7,0.4,1.5,0.7,2.4,0.9c-0.1-0.7-0.2-1.4-0.2-2s-0.1-1.2-0.1-1.8
			c0-0.6,0-1.1,0-1.7c0-0.5,0.1-1.1,0.1-1.6l0,0c0-0.1,0-0.2,0.1-0.3c0-0.1,0-0.3,0.1-0.4c0.1-0.4,0.1-0.9,0.2-1.3
			c0.1-0.4,0.2-0.8,0.3-1.2c0.2-0.4,0.3-0.6,0.6-0.9c0.2-0.2,0.6-0.3,1-0.3l6.2-0.1c1,0,2,0.2,2.9,0.6s1.7,0.9,2.4,1.6
			s1.2,1.5,1.6,2.4c0.4,0.9,0.6,1.9,0.6,3l0.1,5.3c0,0.3-0.1,0.6-0.2,0.9c-0.1,0.3-0.3,0.5-0.5,0.7s-0.4,0.4-0.7,0.5
			s-0.6,0.2-0.9,0.2c-0.5,0-1,0-1.5,0s-1.1,0-1.6,0.1c-0.6,0-1.3,0.1-2,0.1s-1.4,0.1-2.1,0.1c-0.8,0-1.6,0-2.4,0h-0.5v3.2h-3.4
			L791.5,451z M794.5,443.6c0,0.7,0,1.4,0.1,2.1s0.2,1.4,0.3,2.1c0.4,0,0.9,0,1.4,0s1,0,1.4,0c0.8,0,1.7,0,2.5-0.1
			c0.9,0,1.7-0.1,2.4-0.1c0.1,0,0.1,0,0.2,0c0.1,0,0.2,0,0.3,0s0.2,0,0.3,0h0.2v-4.2c0-0.6-0.1-1.1-0.3-1.6s-0.5-0.9-0.9-1.3
			s-0.8-0.7-1.3-0.9c-0.5-0.2-1-0.3-1.6-0.3l-4.8,0.1c-0.1,0.5-0.2,0.9-0.2,1.2c-0.1,0.3-0.1,0.7-0.1,1s0,0.6,0,0.9s0,0.6,0,0.9
			L794.5,443.6L794.5,443.6z"/>
		<path class="st4" d="M791.4,454.3l3.4,0.1l-0.1,3.3l5.1,0.2c0.9,0,1.7,0.3,2.6,0.7c0.9,0.4,1.6,1,2.3,1.7s1.2,1.5,1.6,2.5
			c0.4,0.9,0.6,2,0.5,3s-0.1,2-0.2,3.1c-0.1,1-0.1,2-0.2,3.1c0,0.2-0.1,0.5-0.2,0.7c-0.1,0.2-0.2,0.4-0.4,0.5s-0.3,0.3-0.5,0.3
			c-0.2,0.1-0.4,0.1-0.6,0.1l-10.6-0.4l-0.1,3.1l-3.4-0.1L791.4,454.3z M794.5,461.3l-0.3,8.5l9,0.4c0-0.3,0-0.7,0.1-1.1
			s0-0.7,0.1-1c0-0.3,0-0.6,0-0.9s0-0.5,0-0.7c0-0.3,0-0.5,0-0.6s0-0.1,0-0.1c0-0.5-0.1-1-0.3-1.5s-0.5-0.9-0.8-1.3s-0.7-0.7-1.2-1
			c-0.5-0.2-0.9-0.4-1.4-0.4L794.5,461.3z"/>
		<polygon class="st4" points="790.5,476 793.9,476.2 793.6,480.2 812.8,481.6 812.5,485.1 793.3,483.7 793.1,487.4 789.7,487.1 		
			"/>
		<path class="st4" d="M793.1,487l-0.4,3.8l19.2,1.8l-0.3,3.5l-20.7-1.9c-0.1,0-0.1,0-0.2,0c-0.5,0-0.9-0.3-1.1-0.6
			c-0.3-0.4-0.4-0.8-0.4-1.3l0.5-5.6L793.1,487z"/>
		<path class="st4" d="M799.7,529.7l-13.3-1.9c-0.5-0.1-0.8-0.3-1.1-0.7s-0.4-0.8-0.3-1.3l1.8-12.3c0.2-1.5,0.6-2.7,1.2-3.6
			c0.6-0.9,1.2-1.6,2-2.2c0.8-0.5,1.6-0.8,2.5-1c0.9-0.1,1.8-0.1,2.6,0c1,0.1,1.9,0.4,2.8,0.8c0.9,0.4,1.6,0.8,2.2,1.2
			c-0.4,0.5-0.7,1-1,1.4s-0.6,0.9-1,1.4c-0.5-0.3-1-0.6-1.6-0.8c-0.6-0.2-1.3-0.4-2-0.5c-0.5-0.1-1-0.1-1.5,0
			c-0.5,0-0.9,0.2-1.3,0.4c-0.4,0.3-0.7,0.6-1,1.1c-0.3,0.5-0.5,1.2-0.6,2l-1.6,10.8l11.6,1.7L799.7,529.7z M805,520.4
			c0.3,0,0.5,0.1,0.7,0.3c0.2,0.1,0.4,0.3,0.5,0.5s0.2,0.4,0.3,0.7c0.1,0.2,0.1,0.5,0,0.8c-0.1,0.5-0.3,1-0.7,1.3s-0.9,0.4-1.4,0.4
			c-0.2,0-0.5-0.1-0.7-0.2c-0.2-0.1-0.4-0.3-0.5-0.5s-0.2-0.4-0.3-0.7c-0.1-0.2-0.1-0.5,0-0.8c0.1-0.5,0.3-0.9,0.7-1.3
			C804,520.4,804.5,520.3,805,520.4 M805.8,515c0.3,0,0.5,0.1,0.7,0.3c0.2,0.1,0.4,0.3,0.5,0.5s0.2,0.4,0.3,0.7
			c0.1,0.2,0.1,0.5,0,0.8c0,0.3-0.1,0.5-0.2,0.7c-0.1,0.2-0.3,0.4-0.5,0.5c-0.2,0.2-0.4,0.3-0.6,0.3c-0.2,0.1-0.5,0.1-0.7,0
			c-0.5-0.1-0.9-0.3-1.2-0.7s-0.4-0.9-0.3-1.4c0.1-0.5,0.3-1,0.7-1.3C804.8,515.1,805.2,514.9,805.8,515"/>
		
			<rect x="792.9" y="524.5" transform="matrix(0.1815 -0.9834 0.9834 0.1815 123.5595 1219.9586)" class="st4" width="3.5" height="22.6"/>
		<path class="st4" d="M793.2,551.9c-0.5-0.1-0.9-0.2-1.3-0.3c-0.4-0.1-0.9-0.1-1.4-0.2c-0.6-0.1-1.3-0.2-2-0.3s-1.4-0.2-2.1-0.4
			c-1-0.2-2-0.5-3.1-0.8c-1-0.3-2.1-0.7-3.1-1.1c-1.2-0.5-2.2-1.1-3.2-1.9c-1-0.7-1.8-1.6-2.5-2.6s-1.1-2.1-1.4-3.4
			c-0.3-1.3-0.2-2.7,0.1-4.3l3.3,0.7c-0.2,1.1-0.2,2.1,0,3s0.5,1.6,1,2.3s1.1,1.3,1.8,1.7c0.7,0.5,1.5,0.9,2.4,1.3
			c0.9,0.4,1.8,0.7,2.7,0.9s1.9,0.5,2.8,0.7c0.7,0.1,1.4,0.3,2,0.4c0.7,0.1,1.3,0.2,2,0.3c0.5,0.1,0.9,0.1,1.4,0.2
			c0.4,0.1,0.9,0.2,1.3,0.2L793.2,551.9z"/>
		<path class="st4" d="M777.9,559.9l1.3-5.6c0.1-0.5,0.4-0.8,0.8-1.1c0.4-0.3,0.8-0.3,1.3-0.2c0.1,0,0.1,0,0.2,0.1l20.2,4.7
			l-0.8,3.4l-18.7-4.4l-0.9,3.8L777.9,559.9z"/>
		<polygon class="st4" points="778,559.5 781.3,560.3 779.2,568.5 775.9,567.6 		"/>
		
			<rect x="772.5" y="569.9" transform="matrix(0.2634 -0.9647 0.9647 0.2634 20.6227 1170.304)" class="st4" width="8.4" height="3.4"/>
		
			<rect x="770.2" y="577.5" transform="matrix(0.2802 -0.9599 0.9599 0.2802 1.4018 1160.3062)" class="st4" width="8.4" height="3.4"/>
		
			<rect x="767.9" y="585.1" transform="matrix(0.2969 -0.9549 0.9549 0.2969 -17.4604 1149.9048)" class="st4" width="8.4" height="3.4"/>
		
			<rect x="765.5" y="592.8" transform="matrix(0.3153 -0.949 0.949 0.3153 -37.114 1137.5005)" class="st4" width="8.4" height="3.4"/>
		
			<rect x="763" y="600.3" transform="matrix(0.3323 -0.9432 0.9432 0.3323 -55.5896 1125.5453)" class="st4" width="8.4" height="3.4"/>
		
			<rect x="760.2" y="607.7" transform="matrix(0.3505 -0.9366 0.9366 0.3505 -74.2751 1111.7968)" class="st4" width="8.4" height="3.4"/>
		<path class="st4" d="M764.8,613.7l-1.3,3.1l4.7,2c0.8,0.3,1.5,0.8,2.2,1.6c0.7,0.7,1.2,1.5,1.6,2.4c0.4,0.9,0.6,1.9,0.6,2.9
			s-0.2,2-0.6,3c-0.4,0.9-0.8,1.9-1.2,2.8c-0.4,0.9-0.8,1.9-1.2,2.8c-0.1,0.2-0.2,0.4-0.4,0.6c-0.2,0.2-0.3,0.3-0.5,0.4
			c-0.2,0.1-0.4,0.1-0.6,0.1c-0.2,0-0.4,0-0.6-0.1l-11.2-4.7c-0.5-0.2-0.8-0.5-1.1-0.9c-0.2-0.4-0.2-0.9,0-1.4l6.6-15.8L764.8,613.7
			z M762.1,620.1l-3.2,7.8l8.3,3.4c0.1-0.3,0.3-0.7,0.4-1c0.1-0.3,0.3-0.6,0.4-0.9c0.1-0.3,0.3-0.6,0.4-0.8c0.1-0.3,0.2-0.5,0.3-0.6
			c0.1-0.3,0.2-0.5,0.2-0.6s0-0.1,0.1-0.1c0.2-0.5,0.3-1,0.3-1.5s-0.1-1-0.3-1.5s-0.4-0.9-0.8-1.3c-0.3-0.4-0.7-0.7-1.2-0.9
			L762.1,620.1z"/>
		<path class="st4" d="M745.3,630.8c0.2,0,0.3,0,0.4,0.1c0.1,0,0.3,0.1,0.4,0.2c0.3,0.1,0.5,0.3,0.8,0.5c0.2,0.2,0.4,0.5,0.5,0.8
			s0.2,0.6,0.2,0.9c0,0.3-0.1,0.7-0.3,1l-0.9,2l-1.4-0.7l0.9-2c0.2-0.3,0.2-0.6,0.1-0.8c-0.1-0.2-0.3-0.4-0.5-0.5s-0.4-0.1-0.6-0.1
			c-0.2,0.1-0.4,0.2-0.6,0.5l-1.1,2.2l-1.4-0.7l2.3-4.8l1.4,0.7L745.3,630.8z M751.9,639.7c1.5,0.7,3,1.2,4.6,1.7
			c1.6,0.4,3.2,0.7,4.8,0.9s3.3,0.1,4.9,0c1.7-0.2,3.3-0.6,5-1.2c0.1,0.3,0.2,0.6,0.3,0.9c0.1,0.3,0.2,0.5,0.3,0.8s0.2,0.5,0.3,0.8
			s0.2,0.5,0.3,0.8c-1.5,0.5-3,0.9-4.5,1.1c-1.5,0.2-3.1,0.3-4.6,0.3s-3-0.1-4.5-0.4c-1.5-0.2-2.9-0.6-4.2-1c-0.5-0.1-1-0.3-1.5-0.5
			s-1.1-0.4-1.6-0.6c0.2,1,0.6,1.9,1.1,2.6c0.5,0.8,1.2,1.4,2.2,1.9l13.3,6.3l-1.5,3.2l-13.5-6.4c-1.1-0.7-2-1.4-2.7-2.1
			c-0.7-0.7-1.2-1.5-1.6-2.3c-0.4-0.8-0.6-1.6-0.6-2.5c-0.1-0.9,0-1.9,0.1-2.9s0.4-2.1,0.7-3.3s0.7-2.4,1-3.7
			c0.6,0.2,1.1,0.3,1.6,0.5c0.5,0.1,1,0.3,1.6,0.5c-0.3,0.8-0.5,1.5-0.7,2.2s-0.3,1.4-0.5,2L751.9,639.7z"/>
		
			<rect x="751.2" y="647.3" transform="matrix(0.4667 -0.8844 0.8844 0.4667 -180.9182 1017.1398)" class="st4" width="3.5" height="22.6"/>
		<path class="st4" d="M726,682.2l2.7-4.4c0.3-0.5,0.7-0.7,1.1-0.8c0.5-0.1,0.9,0,1.4,0.3l9,5.5l2.2-3.6c0.3-0.5,0.5-1,0.6-1.6
			c0.1-0.5,0.1-1.1,0-1.6s-0.3-1-0.6-1.4s-0.7-0.8-1.2-1.1l-4.1-2.5c-0.3,0.4-0.6,0.7-0.8,1s-0.5,0.6-0.7,1s-0.5,0.8-0.7,1.4
			c-0.2,0.5-0.5,1.3-0.9,2.2c-0.6-0.3-1.1-0.5-1.5-0.8c-0.5-0.2-1-0.5-1.5-0.7c0.4-0.9,0.7-1.7,1.1-2.4c0.4-0.7,0.7-1.4,1.1-2
			c0.4-0.6,0.8-1.2,1.2-1.7s0.9-1,1.3-1.5c0.3-0.3,0.6-0.4,1-0.5c0.4,0,0.7,0,1.1,0.2l5.2,3.2c0.9,0.5,1.6,1.2,2.1,2
			c0.6,0.8,0.9,1.7,1.1,2.6c0.2,0.9,0.2,1.9,0.1,2.9c-0.2,1-0.5,2-1.1,2.9l-2.8,4.6c-0.2,0.3-0.4,0.5-0.6,0.6
			c-0.2,0.2-0.5,0.3-0.8,0.4c-0.3,0.1-0.6,0.1-0.9,0.1c-0.3,0-0.6-0.1-0.8-0.3l-8.7-5.3l-1.8,2.9L726,682.2z M748.4,685.1
			c0.5,0.3,0.7,0.7,0.8,1.2s0,1-0.3,1.5c-0.1,0.2-0.3,0.4-0.5,0.6c-0.2,0.2-0.4,0.3-0.7,0.3c-0.2,0.1-0.5,0.1-0.7,0
			c-0.2,0-0.5-0.1-0.7-0.3c-0.2-0.1-0.4-0.3-0.5-0.5s-0.2-0.4-0.3-0.7c-0.1-0.2-0.1-0.5,0-0.7c0-0.2,0.1-0.5,0.3-0.7
			c0.3-0.5,0.7-0.8,1.2-0.9C747.5,684.8,748,684.9,748.4,685.1 M751.3,680.6c0.4,0.3,0.7,0.7,0.8,1.2s0,1-0.3,1.4
			c-0.1,0.2-0.3,0.4-0.5,0.6c-0.2,0.2-0.4,0.3-0.7,0.3c-0.2,0.1-0.5,0.1-0.7,0c-0.2,0-0.5-0.1-0.7-0.3c-0.2-0.1-0.4-0.3-0.5-0.5
			s-0.2-0.4-0.3-0.7c-0.1-0.2-0.1-0.5,0-0.7c0-0.2,0.1-0.5,0.3-0.7c0.3-0.5,0.7-0.7,1.2-0.9C750.3,680.2,750.8,680.3,751.3,680.6"/>
		
			<rect x="721.1" y="684.3" transform="matrix(0.5604 -0.8282 0.8282 0.5604 -249.3124 902.3643)" class="st4" width="8.4" height="3.4"/>
		
			<rect x="716.6" y="690.9" transform="matrix(0.582 -0.8132 0.8132 0.582 -261.9109 875.6198)" class="st4" width="8.4" height="3.4"/>
		
			<rect x="711.8" y="697.3" transform="matrix(0.6032 -0.7976 0.7976 0.6032 -273.4416 848.4651)" class="st4" width="8.4" height="3.4"/>
		
			<rect x="707" y="703.5" transform="matrix(0.623 -0.7822 0.7822 0.623 -283.5219 822.1268)" class="st4" width="8.4" height="3.4"/>
		
			<rect x="701.9" y="709.7" transform="matrix(0.6457 -0.7636 0.7636 0.6457 -293.0256 791.2084)" class="st4" width="8.4" height="3.4"/>
		
			<rect x="696.7" y="715.6" transform="matrix(0.667 -0.745 0.745 0.667 -301.0413 761.0617)" class="st4" width="8.4" height="3.4"/>
		
			<rect x="691.4" y="721.5" transform="matrix(0.6877 -0.726 0.726 0.6877 -307.7932 730.8644)" class="st4" width="8.4" height="3.4"/>
		<path class="st4" d="M691.9,724.7l2.4,2.4l-2.9,2.9l5.7,5.8l-2.5,2.5l-5.7-5.8l-2.6,2.6l-2.4-2.4L691.9,724.7z M700.9,738
			c0.2,0.1,0.4,0.2,0.5,0.3c0.2,0.1,0.3,0.2,0.5,0.4c0.3,0.3,0.5,0.6,0.7,1s0.2,0.8,0.2,1.3c0,0.4-0.1,0.9-0.3,1.4s-0.5,0.9-0.9,1.3
			l-2.4,2.3l-1.5-1.5l2.4-2.3c0.4-0.4,0.6-0.8,0.6-1.1c0-0.4-0.1-0.6-0.3-0.9c-0.2-0.2-0.5-0.3-0.8-0.4c-0.3,0-0.7,0.1-1,0.5
			l-2.7,2.6l-1.5-1.5l5.9-5.8l1.5,1.5L700.9,738z"/>
		<path class="st4" d="M675.5,732.4c0.3,0.4,0.5,0.8,0.5,1.4c0,0.5-0.3,0.9-0.7,1.3c-0.4,0.4-0.9,0.5-1.4,0.5s-0.9-0.2-1.3-0.6
			c-0.3-0.4-0.5-0.8-0.5-1.4c0-0.5,0.3-0.9,0.7-1.3c0.4-0.4,0.9-0.5,1.4-0.5C674.8,731.8,675.2,732,675.5,732.4 M683.3,737.6
			l7.8,8.7l-2.6,2.3l-7.8-8.7l-2.7,2.5l-2.3-2.5l8.4-7.5l2.3,2.5L683.3,737.6z M679.6,728.8c0.4,0.4,0.5,0.8,0.5,1.4
			c0,0.5-0.3,0.9-0.7,1.3c-0.2,0.2-0.4,0.3-0.7,0.4c-0.2,0.1-0.5,0.1-0.7,0.1s-0.5-0.1-0.7-0.2c-0.2-0.1-0.4-0.3-0.6-0.4
			c-0.2-0.2-0.3-0.4-0.4-0.6c-0.1-0.2-0.1-0.5-0.1-0.7s0.1-0.5,0.2-0.7c0.1-0.2,0.3-0.4,0.5-0.6c0.4-0.4,0.9-0.5,1.4-0.5
			C678.8,728.2,679.2,728.4,679.6,728.8"/>
		<path class="st4" d="M676.3,739.9l2,2.7l-2.7,2c0.5,0.4,0.9,0.8,1.3,1.3c0.4,0.4,0.6,0.8,0.9,1.1c0.6,0.9,1.1,1.8,1.4,2.8
			c0.3,1,0.4,2.1,0.4,3.1s-0.2,2-0.6,3c-0.3,1-0.8,1.8-1.4,2.5c-0.3,0.3-0.6,0.6-1,0.9c-0.4,0.3-0.8,0.6-1.2,1
			c-0.7,0.5-1.5,1-2.3,1.5c-0.9,0.5-1.8,0.8-2.7,1.1c-1,0.3-2,0.4-3,0.4c-1.1,0-2.1-0.2-3.3-0.5c-1.1-0.4-2.2-0.9-3.4-1.7
			c-1.1-0.8-2.3-1.9-3.4-3.2c-0.3-0.3-0.5-0.7-0.8-1.1c-0.3-0.4-0.6-0.8-0.8-1.1L676.3,739.9z M670.3,759.1
			c-0.1-0.1-0.3-0.2-0.5-0.3s-0.4-0.3-0.6-0.4c-0.2-0.2-0.4-0.3-0.6-0.4c-0.2-0.2-0.3-0.3-0.4-0.4c-0.6-0.7-1-1.6-1.3-2.6
			s-0.5-2.1-0.6-3.2l-5.9,4.4c0.8,1,1.6,1.7,2.4,2.3c0.8,0.5,1.6,0.9,2.3,1.2c0.8,0.2,1.5,0.3,2.2,0.3s1.4-0.2,2.1-0.4L670.3,759.1z
			 M671,755.4c0.5,0.7,1.1,1.1,1.7,1.3c0.6,0.2,1.2,0.2,1.7-0.1s0.9-0.7,1.2-1.2s0.5-1,0.5-1.7c0.1-0.6,0.1-1.2,0-1.9
			s-0.3-1.3-0.6-1.9c-0.1-0.2-0.3-0.4-0.5-0.7s-0.5-0.6-0.8-0.8s-0.6-0.4-1-0.5s-0.7-0.2-1.1-0.1c-0.4,0.1-0.8,0.2-1.2,0.5
			c-0.4,0.4-0.7,0.8-0.9,1.4c-0.2,0.6-0.3,1.2-0.3,1.9s0.1,1.3,0.3,2S670.6,754.8,671,755.4"/>
	</g>
	<g>
		<path id="XMLID_4_" class="st5" d="M745.5,977.6h-375c-33.5,0-60.9-27.4-60.9-60.9s27.4-60.9,60.9-60.9h375
			c33.5,0,60.9,27.4,60.9,60.9S779,977.6,745.5,977.6z"/>
		<text id="XMLID_2_" transform="matrix(1 0 0 1 398.7734 950.4619)" class="st4 st6 st7">NB-0017</text>
	</g>
</g>
</svg>
