<?xml version="1.0" encoding="utf-8"?>
<!-- Generator: Adobe Illustrator 26.3.1, SVG Export Plug-In . SVG Version: 6.00 Build 0)  -->
<svg version="1.1" id="Layer_1" xmlns="http://www.w3.org/2000/svg" xmlns:xlink="http://www.w3.org/1999/xlink" x="0px" y="0px"
	 viewBox="0 0 1080 1080" style="enable-background:new 0 0 1080 1080;" xml:space="preserve">
<g id="l3crQoK1A6S5ouQGwFBU8ge">
	<g>
		<path id="paSXYqpt7" d="M524.6,1015.1c-108.7-13.1-211.4-63-289.8-141.2c-71.3-71.1-116.7-155.6-137.3-255.4
			c-8.4-41.2-10.9-109.4-5.6-155.1c19.5-165.9,122.9-312,273.1-385.6c15.5-7.7,29.7-14.2,32-14.8c3.4-1.1,5.2,2.4,18.5,36.7
			c8.2,21,14.6,38.4,14,38.9c-0.6,0.6-8.6,4.3-18,8.6c-22.3,9.9-52.6,28.1-74.3,44.3C233,270,171.6,392.1,171.4,521.8
			c0,105.7,41,208.6,113.7,284.9C380.3,906.8,518,952.4,654,929.2c24.7-4.1,66.4-15.3,75.4-20c1.9-1.1,3.9-1.5,4.5-0.9
			c1.1,1.1,30.5,74.5,30.5,76.1s-45.6,16.1-67.3,21.1c-37.2,8.6-56.5,10.9-104.8,11.4C560.9,1017.5,539.6,1016.8,524.6,1015.1z"/>
		<path id="piWRFBJT5" d="M719.8,867.1c-8.4-21.3-15-38.7-14.8-38.9c0.4-0.2,12-6,25.8-12.9s33.3-18.3,43-25.1
			c26.4-18.7,63.2-56.3,81.2-83.2c8-12,14.2-22.4,13.5-23.6c-0.6-0.9-4.5-2.2-8.8-3c-15.5-2.4-53.5-16.1-67.3-24.3
			c-27.3-16.1-47.7-39.3-58.9-67c-3.2-8-6.5-14.8-7.1-14.8c-0.7,0-6.9,2.1-13.8,4.7c-23.8,9-35.5,11-61.2,11
			c-26.9,0-44.3-3.4-69.6-13.8C535.5,556.9,485.2,513,458,468.3l-6.2-10.1l29.9-31.1c16.3-17.2,32.7-34,36.1-37.4l6.4-6l17.8,23.8
			c38.2,51.4,72,78,113.9,89.6c19.1,5.2,58.9,4.9,84-0.9c17.2-4.1,19.5-4.3,21-1.7c10.1,18.1,38.9,47,60.1,60.2
			c29.9,18.5,78.4,29.6,149.8,34c11,0.7,20,1.7,20,2.2c0,0.4-2.2,10.5-4.9,22.3C962.2,719.1,894.7,814,801.9,872
			c-13.8,8.6-62.7,33.7-65.7,33.7C735.7,905.6,728.4,888.2,719.8,867.1z"/>
		<path id="pj86FK1dd" d="M552.1,847.5C436.9,835.3,337,764.4,288.5,660.2c-45.5-97.7-40-210.5,14.6-303.4
			c24.9-42.3,65.7-84.4,106.8-110.6c11.4-7.1,51.6-27.5,52.6-26.6c0.9,0.7,30.7,76.7,30.1,76.9c-7.7,2.8-30.9,15.5-44.7,24.7
			c-50.7,33.7-88.3,89.4-101.8,150.8c-4.1,18.3-5.6,63.6-2.8,84.4c10.3,77.4,61.5,148.4,132.6,183.7c33.5,16.6,60.6,23.4,99.5,24.7
			c31.1,1.1,55.4-1.9,80.1-9.7c8.6-2.8,16.1-4.5,16.5-4.1c2.4,2.2,30.1,75.4,29.2,76.5c-2.2,2.1-37.8,12.3-53.7,15.3
			C615.2,849.1,583.2,850.6,552.1,847.5z"/>
	</g>
</g>
</svg>
