<?xml version="1.0" encoding="utf-8"?>
<!-- Generator: Adobe Illustrator 26.3.1, SVG Export Plug-In . SVG Version: 6.00 Build 0)  -->
<svg version="1.1" id="Layer_1" xmlns="http://www.w3.org/2000/svg" xmlns:xlink="http://www.w3.org/1999/xlink" x="0px" y="0px"
	 viewBox="0 0 1080 1080" style="enable-background:new 0 0 1080 1080;" xml:space="preserve">
<style type="text/css">
	.st0{fill:#0262AD;}
	.st1{fill:none;}
	.st2{fill:#FFFFFF;}
	.st3{stroke:#000000;stroke-width:1.6171;stroke-miterlimit:10;}
</style>
<g>
	<rect x="72" y="53" class="st0" width="808.5" height="808.5"/>
	<line class="st1" x1="438.7" y1="666.7" x2="459.6" y2="666.7"/>
	<g>
		<g>
			<path class="st2" d="M299.8,394.4v-59.8h-78.6h-78.6v59.8c0,0,23.5,0,35.3,1.1v125.3l-35.3,0.7v58.4h78.6h78.6v-58.4l-35.3-0.7
				V395.5C276.3,394.4,299.8,394.4,299.8,394.4z"/>
			<path class="st2" d="M508.3,570.9c-36.7,19.1-84.4,15.6-121.5,0c-6.1-3.2-12.1-6.7-18.2-9.6l-0.7,17l-53.5,0.3v-89.9l48.1-0.4
				c2.9,3.5,4.6,7.8,7.5,11.3c24.2,25.5,60.5,32.5,94,23.3c9-5,6.8-11.4-1.1-14.9c-32-11-65.2-19.1-96.9-30.5
				c-23.2-8.8-47.4-27.6-52-53.1c-6.1-26.9,1.1-57.4,24.2-74.3c35.6-25.8,90.5-24.1,129.7-7.4l16.4,8.9l1.1,0.6v-6.8
				c0.3-4.1,0-8.3,0-8.3l51.6-0.4l0.7,84c0,0-35.3,0.3-51,0.3c-24.3-38.3-90.6-42.4-99.4-27.3c-1.6,9.1,9.3,11.9,10.4,12.7
				l86.2,25.1c28.8,7.5,57.3,34.7,61.2,64.8C549.3,527.3,535,556,508.3,570.9z"/>
			<path class="st2" d="M799.5,397.4c-16.1-43.2-65.8-66.7-112.2-66.7c-46.3,0-96,23.4-112.1,66.7c-13.4,36.6-14,81.6,0,119.8
				c16.1,43.2,65.8,66.7,112.1,66.7s96-23.4,112.2-66.7C812.9,480.7,813.6,435.7,799.5,397.4z M721.9,509.4
				c-13.3,18.5-55.7,18.5-69,0c-12.7-17.8-12.7-86.4,0-104.2c13.2-18.5,55.7-18.5,69,0C734.6,423,734.6,491.6,721.9,509.4z"/>
		</g>
		<g>
			<path class="st2" d="M703.2,606.5c-15.6,23.7-34.9,44.9-57,62.6c-10.4-6.6-21.3-12.6-32.6-17.9c12.4-13.7,23.5-28.7,33.1-44.8
				h-13.2c-9,14.3-19.3,27.7-30.7,39.9c-14.4-6.2-29.4-11.3-44.9-15.4c4-8,7.7-16.2,11.1-24.5h-12.2c-3.2,7.5-6.5,14.8-10.2,21.8
				c-20.8-4.6-42.4-7.2-64.6-7.6v-14.3h-11.3v14.3c-22.2,0.4-43.8,3-64.6,7.6c-3.6-7.1-7-14.4-10.2-21.8h-12.2
				c3.4,8.4,7.1,16.6,11.1,24.5c-15.5,4-30.5,9.2-44.9,15.4c-11.4-12.2-21.7-25.6-30.7-39.9H306c9.6,16.1,20.7,31.1,33.1,44.8
				c-11.3,5.3-22.2,11.3-32.6,17.9c-22.1-17.8-41.3-38.9-57-62.6h-13.4c16.3,26.2,36.8,49.6,60.5,69.1c3,2.5,6.1,5,9.3,7.4
				c24.7,18.7,52.6,33.5,82.7,43.3c4.1,1.4,8.3,2.6,12.5,3.8c22.2,6.2,45.6,9.7,69.7,10.1c1.9,0,3.8,0.1,5.6,0.1s3.8,0,5.6-0.1
				c24.1-0.5,47.4-4,69.7-10.1c4.2-1.2,8.4-2.4,12.5-3.8c30.1-9.8,58-24.6,82.7-43.3c3.1-2.4,6.2-4.8,9.3-7.4
				c23.7-19.6,44.2-42.9,60.5-69.1H703.2z M552.5,641.3c14.4,3.6,28.4,8.2,41.9,13.8c-18.9,18.5-40.5,34.2-64,46.3
				c-4.6-2.5-9.3-4.6-14.1-6.4C529.8,678.7,541.9,660.7,552.5,641.3z M481.9,632c20.3,0.4,40.1,2.6,59.1,6.7
				c-10.6,19.1-22.8,36.7-36.4,52.5c-7.5-2-15.1-3.2-22.8-3.6L481.9,632L481.9,632z M470.6,632v55.6c-7.7,0.4-15.3,1.6-22.8,3.6
				c-13.6-15.8-25.8-33.4-36.4-52.5C430.6,634.7,450.4,632.4,470.6,632z M400.1,641.3c10.5,19.4,22.7,37.4,36.2,53.6
				c-4.8,1.8-9.4,3.9-14.1,6.4c-23.5-12.1-45.1-27.7-64-46.3C371.7,649.5,385.7,644.9,400.1,641.3z M398.2,717.5
				c-29.9-9-57.7-23-82.3-41.1c10-6.1,20.4-11.6,31.2-16.6c18.8,19.1,40.3,35.4,63.8,48.2C406.6,710.9,402.4,714.1,398.2,717.5z
				 M493.9,728.4c-0.2,0-16.6,1.3-35.2,0c-16-1-31.7-3.5-46.9-7.1c3.5-2.6,7.1-5,10.8-7.1c4.1-2.5,8.4-4.7,12.7-6.6
				c2.9-1.3,5.9-2.4,8.9-3.5c4-1.4,8.1-2.5,12.2-3.3c0.2,0,18.3-4.4,39.7,0c4.1,0.8,8.2,2,12.2,3.3c3,1,6,2.2,8.9,3.5
				c4.3,1.9,8.6,4.1,12.7,6.6c3.7,2.2,7.3,4.5,10.8,7.1C525.6,724.9,509.9,727.4,493.9,728.4z M554.3,717.5
				c-4.1-3.5-8.4-6.6-12.7-9.4c23.5-12.8,44.9-29.1,63.8-48.2c10.8,4.9,21.2,10.5,31.2,16.6C612,694.5,584.2,708.5,554.3,717.5z"/>
			<path class="st2" d="M249.4,308c15.6-23.7,34.9-44.9,57-62.6c10.4,6.6,21.3,12.6,32.6,17.9C326.5,277,315.4,292,305.8,308H319
				c9-14.3,19.3-27.6,30.7-39.9c14.4,6.2,29.4,11.3,44.9,15.4c-4,8-7.7,16.1-11.1,24.5h12.2c3.2-7.4,6.5-14.7,10.2-21.8
				c20.8,4.6,42.4,7.2,64.6,7.6V308h11.3v-14.2c22.2-0.4,43.8-3,64.6-7.6c3.6,7.1,7,14.4,10.2,21.8h12.2
				c-3.4-8.4-7.1-16.6-11.1-24.5c15.5-4,30.5-9.2,44.9-15.4c11.4,12.2,21.7,25.6,30.7,39.9h13.2c-9.6-16-20.7-31-33.1-44.7
				c11.3-5.3,22.2-11.3,32.6-17.9c22.1,17.8,41.3,38.9,57,62.6h13.4c-16.3-26.2-36.8-49.6-60.5-69.1c-3-2.5-6.1-5-9.3-7.4
				c-24.7-18.7-52.6-33.5-82.7-43.3c-4.1-1.4-8.3-2.6-12.5-3.8c-22.2-6.2-45.6-9.7-69.7-10.1c-1.9,0-3.8-0.1-5.6-0.1s-3.8,0-5.6,0.1
				c-24.1,0.5-47.4,4-69.7,10.1c-4.2,1.2-8.4,2.4-12.5,3.8c-30.1,9.8-58,24.6-82.7,43.3c-3.1,2.4-6.2,4.8-9.3,7.4
				c-23.7,19.6-44.2,42.9-60.5,69.1L249.4,308L249.4,308z M400.1,273.2c-14.4-3.6-28.4-8.2-41.9-13.8c18.9-18.5,40.5-34.2,64-46.3
				c4.6,2.5,9.3,4.6,14.1,6.4C422.8,235.8,410.6,253.8,400.1,273.2z M470.6,282.5c-20.3-0.4-40.1-2.6-59.1-6.7
				c10.6-19.1,22.8-36.7,36.4-52.5c7.5,2,15.1,3.2,22.8,3.6L470.6,282.5L470.6,282.5z M481.9,282.5v-55.6c7.7-0.4,15.3-1.6,22.8-3.6
				c13.6,15.8,25.8,33.4,36.4,52.5C522,279.9,502.2,282.1,481.9,282.5z M552.5,273.2c-10.5-19.4-22.7-37.4-36.2-53.6
				c4.8-1.8,9.4-3.9,14.1-6.4c23.5,12.1,45.1,27.7,64,46.3C580.9,265,566.9,269.6,552.5,273.2z M554.3,197c29.9,9,57.7,23,82.3,41.1
				c-10,6.1-20.4,11.6-31.2,16.6c-18.8-19.1-40.3-35.4-63.8-48.2C546,203.6,550.2,200.5,554.3,197z M458.7,186.2
				c0.2,0,16.6-1.3,35.2,0c16,1,31.7,3.5,46.9,7.1c-3.5,2.6-7.1,5-10.8,7.1c-4.1,2.5-8.4,4.7-12.7,6.6c-2.9,1.3-5.9,2.4-8.9,3.5
				c-4,1.4-8.1,2.5-12.2,3.3c-0.2,0-18.3,4.4-39.7,0c-4.1-0.8-8.2-2-12.2-3.3c-3-1-6-2.2-8.9-3.5c-4.3-1.9-8.6-4.1-12.7-6.6
				c-3.7-2.2-7.3-4.5-10.8-7.1C427,189.6,442.7,187.2,458.7,186.2z M398.2,197c4.1,3.5,8.4,6.6,12.7,9.4
				c-23.5,12.8-44.9,29.1-63.8,48.2c-10.8-4.9-21.2-10.5-31.2-16.6C340.6,220,368.3,206,398.2,197z"/>
		</g>
	</g>
	<g>
		<g>
			<path class="st0" d="M148.7,993.2l18.5-2c0.5,3.8,1.6,6.5,3.5,8.4c1.9,1.8,4.4,2.7,7.5,2.7c3.9,0,7.3-1.8,10.1-5.4
				c2.8-3.6,4.5-11.1,5.3-22.6c-4.8,5.6-10.8,8.4-18,8.4c-7.8,0-14.6-3-20.3-9.1c-5.7-6-8.5-13.9-8.5-23.6c0-10.1,3-18.2,9-24.4
				s13.6-9.3,22.9-9.3c10.1,0,18.4,3.9,24.9,11.7s9.7,20.7,9.7,38.6c0,18.2-3.4,31.3-10.1,39.4c-6.7,8.1-15.5,12.1-26.4,12.1
				c-7.8,0-14.1-2.1-18.9-6.2C153.1,1007.6,150,1001.4,148.7,993.2z M191.9,951.5c0-6.2-1.4-10.9-4.2-14.3c-2.8-3.4-6.1-5.1-9.8-5.1
				c-3.5,0-6.5,1.4-8.8,4.2s-3.5,7.3-3.5,13.7s1.3,11.2,3.8,14.2s5.7,4.5,9.5,4.5c3.7,0,6.8-1.4,9.3-4.3
				C190.6,961.4,191.9,957.1,191.9,951.5z"/>
			<path class="st0" d="M257.9,916.2c9.6,0,17.2,3.4,22.6,10.3c6.5,8.2,9.7,21.7,9.7,40.6c0,18.8-3.3,32.4-9.8,40.6
				c-5.4,6.8-12.9,10.2-22.6,10.2c-9.7,0-17.5-3.7-23.4-11.2c-5.9-7.4-8.9-20.7-8.9-39.8c0-18.8,3.3-32.2,9.8-40.5
				C240.8,919.6,248.3,916.2,257.9,916.2z M257.9,932.1c-2.3,0-4.4,0.7-6.2,2.2s-3.2,4.1-4.2,7.9c-1.3,4.9-2,13.2-2,24.9
				s0.6,19.7,1.8,24.1c1.2,4.4,2.7,7.3,4.4,8.7c1.8,1.4,3.8,2.2,6.1,2.2s4.4-0.7,6.2-2.2c1.8-1.5,3.2-4.1,4.2-7.9
				c1.3-4.9,2-13.2,2-24.9s-0.6-19.7-1.8-24.1c-1.2-4.4-2.7-7.3-4.5-8.8C262.3,932.8,260.2,932.1,257.9,932.1z"/>
			<path class="st0" d="M335.3,916.2c9.6,0,17.2,3.4,22.6,10.3c6.5,8.2,9.7,21.7,9.7,40.6c0,18.8-3.3,32.4-9.8,40.6
				c-5.4,6.8-12.9,10.2-22.6,10.2s-17.5-3.7-23.4-11.2c-5.9-7.4-8.9-20.7-8.9-39.8c0-18.8,3.3-32.2,9.8-40.5
				C318.1,919.6,325.7,916.2,335.3,916.2z M335.3,932.1c-2.3,0-4.4,0.7-6.2,2.2c-1.8,1.5-3.2,4.1-4.2,7.9c-1.3,4.9-2,13.2-2,24.9
				s0.6,19.7,1.8,24.1c1.2,4.4,2.7,7.3,4.4,8.7c1.8,1.4,3.8,2.2,6.1,2.2s4.4-0.7,6.2-2.2c1.8-1.5,3.2-4.1,4.2-7.9
				c1.3-4.9,2-13.2,2-24.9s-0.6-19.7-1.8-24.1c-1.2-4.4-2.7-7.3-4.5-8.8C339.7,932.8,337.6,932.1,335.3,932.1z"/>
			<path class="st0" d="M429.3,1016.2h-19.1v-71.9c-7,6.5-15.2,11.3-24.7,14.5v-17.3c5-1.6,10.4-4.7,16.2-9.3
				c5.8-4.6,9.9-9.9,12-15.9h15.5v99.9H429.3z"/>
			<path class="st0" d="M455.8,963.2v-19.1h19.1v19.1H455.8z M455.8,1016.2v-19.1h19.1v19.1H455.8z"/>
			<path class="st0" d="M568.6,998.5v17.7h-66.9c0.7-6.7,2.9-13.1,6.5-19.1s10.8-14,21.5-23.9c8.6-8,13.9-13.5,15.8-16.3
				c2.6-3.9,3.9-7.8,3.9-11.7c0-4.3-1.1-7.5-3.4-9.8c-2.3-2.3-5.4-3.4-9.5-3.4c-4,0-7.2,1.2-9.5,3.6c-2.4,2.4-3.7,6.4-4.1,12
				l-19-1.9c1.1-10.5,4.7-18,10.7-22.6s13.5-6.9,22.4-6.9c9.8,0,17.6,2.6,23.2,7.9c5.6,5.3,8.4,11.9,8.4,19.8
				c0,4.5-0.8,8.8-2.4,12.8c-1.6,4.1-4.2,8.3-7.6,12.7c-2.3,2.9-6.5,7.2-12.5,12.7s-9.8,9.2-11.4,11c-1.6,1.8-2.9,3.6-3.9,5.3h37.8
				V998.5z"/>
			<path class="st0" d="M613.8,916.2c9.6,0,17.2,3.4,22.6,10.3c6.5,8.2,9.7,21.7,9.7,40.6c0,18.8-3.3,32.4-9.8,40.6
				c-5.4,6.8-12.9,10.2-22.6,10.2c-9.7,0-17.5-3.7-23.4-11.2c-5.9-7.4-8.9-20.7-8.9-39.8c0-18.8,3.3-32.2,9.8-40.5
				C596.6,919.6,604.1,916.2,613.8,916.2z M613.8,932.1c-2.3,0-4.4,0.7-6.2,2.2s-3.2,4.1-4.2,7.9c-1.3,4.9-2,13.2-2,24.9
				s0.6,19.7,1.8,24.1c1.2,4.4,2.7,7.3,4.5,8.7s3.8,2.2,6.1,2.2s4.4-0.7,6.2-2.2s3.2-4.1,4.2-7.9c1.3-4.9,2-13.2,2-24.9
				s-0.6-19.7-1.8-24.1c-1.2-4.4-2.7-7.3-4.5-8.8C618.1,932.8,616.1,932.1,613.8,932.1z"/>
			<path class="st0" d="M707.7,1016.2h-19.1v-71.9c-7,6.5-15.2,11.3-24.7,14.5v-17.3c5-1.6,10.4-4.7,16.2-9.3s9.9-9.9,12-15.9h15.5
				L707.7,1016.2L707.7,1016.2z"/>
			<path class="st0" d="M736.5,990.6l19-2c0.5,4.3,2.2,7.7,4.8,10.2c2.7,2.5,5.8,3.8,9.2,3.8c4,0,7.4-1.6,10.1-4.9
				c2.8-3.2,4.1-8.1,4.1-14.6c0-6.1-1.4-10.7-4.1-13.8c-2.7-3.1-6.3-4.6-10.7-4.6c-5.5,0-10.4,2.4-14.7,7.3l-15.5-2.2l9.8-51.8H799
				v17.9h-36l-3,16.9c4.3-2.1,8.6-3.2,13-3.2c8.5,0,15.6,3.1,21.5,9.2c5.9,6.2,8.8,14.2,8.8,24c0,8.2-2.4,15.5-7.1,21.9
				c-6.5,8.8-15.5,13.2-27,13.2c-9.2,0-16.7-2.5-22.5-7.4C741.1,1005.6,737.7,999,736.5,990.6z"/>
		</g>
	</g>
	<path class="st3" d="M892.7,123c0,34.5,27.8,62.6,62.1,62.6c34.2,0,62.1-28.1,62.1-62.6s-27.8-62.5-62.1-62.5
		C920.5,60.5,892.7,88.5,892.7,123z M899.8,123c0-30.5,24.7-55.3,54.9-55.3c30.3,0,54.8,24.8,54.8,55.3s-24.6,55.3-54.8,55.3
		C924.5,178.4,899.8,153.5,899.8,123z"/>
	<g>
		<path d="M932.1,153.9V86.1h27.2c5.5,0,9.7,0.6,12.5,1.8c2.8,1.2,5.2,3.4,6.8,6.4c1.7,3.1,2.6,6.5,2.6,10.3c0,4.8-1.4,8.9-4.2,12.2
			c-2.8,3.3-7.1,5.4-13.1,6.3c2.2,1.2,3.8,2.3,4.9,3.4c2.4,2.4,4.7,5.4,6.8,9l10.5,18.5H976l-8.1-14.1c-2.4-4.1-4.4-7.2-5.9-9.4
			c-1.6-2.2-3-3.7-4.1-4.5c-1.2-0.8-2.5-1.4-3.8-1.7c-0.9-0.2-2.5-0.3-4.5-0.3h-9.4v30.1h-8.1V153.9z M940.2,116h17.5
			c3.7,0,6.6-0.4,8.7-1.3c2.1-0.9,3.7-2.2,4.8-4.1s1.7-3.9,1.7-6.1c0-3.2-1.1-5.8-3.2-7.9c-2.1-2.1-5.5-3.1-10-3.1h-19.5V116z"/>
	</g>
</g>
</svg>
