<svg width="44" height="44" viewBox="0 0 44 44" fill="none" xmlns="http://www.w3.org/2000/svg">
<path d="M22.0001 41.7083C11.1284 41.7083 2.29175 32.8717 2.29175 22C2.29175 11.1283 11.1284 2.29166 22.0001 2.29166C32.8717 2.29166 41.7084 11.1283 41.7084 22C41.7084 32.8717 32.8717 41.7083 22.0001 41.7083ZM22.0001 5.04166C12.6501 5.04166 5.04175 12.65 5.04175 22C5.04175 31.35 12.6501 38.9583 22.0001 38.9583C31.3501 38.9583 38.9584 31.35 38.9584 22C38.9584 12.65 31.3501 5.04166 22.0001 5.04166Z" fill="#65BA6B"/>
<path d="M19.3966 28.5633C19.03 28.5633 18.6816 28.4167 18.425 28.16L13.2366 22.9717C12.705 22.44 12.705 21.56 13.2366 21.0283C13.7683 20.4967 14.6483 20.4967 15.18 21.0283L19.3966 25.245L28.82 15.8217C29.3516 15.29 30.2316 15.29 30.7633 15.8217C31.295 16.3533 31.295 17.2333 30.7633 17.765L20.3683 28.16C20.1116 28.4167 19.7633 28.5633 19.3966 28.5633Z" fill="#65BA6B"/>
</svg>
